4d 54 68 64 00 00 00 06 00 01 00 10 01 80 4d 54 72 6b 00 00 00 7d 00 ff 58 04 04 02 18 08 00 ff 51 03 08 7a 1e 88 ac 00 ff 51 03 08 a3 0e 86 00 ff 51 03 08 cd 98 9e 00 ff 51 03 08 7a 1e bc 00 ff 51 03 08 a3 0e 83 00 ff 51 03 08 cd 98 83 00 ff 51 03 08 f9 c6 83 00 ff 51 03 09 27 c0 83 00 ff 51 03 0a 2c 24 8c 00 ff 51 03 08 7a 1e a4 00 ff 51 03 08 a3 0e 8c 00 ff 51 03 08 cd 98 83 00 ff 51 03 08 f9 c6 83 00 ff 51 03 09 27 c0 b6 00 ff 2f 00 4d 54 72 6b 00 00 22 24 00 ff 03 09 45 2e 50 49 41 4e 4f 20 32 83 00 b0 00 00 08 c0 05 04 b0 07 7f 00 b0 0a 40 00 b0 0b 7f 04 b0 5b 64 00 b0 5d 14 94 70 90 2e 53 81 3c 90 35 46 81 3c 90 33 4a 08 90 3c 53 08 80 35 46 81 28 80 33 4a 04 90 35 53 08 90 3e 53 04 80 3c 53 86 74 80 2e 53 40 80 35 53 04 90 2e 55 18 80 3e 53 81 10 80 2e 55 18 90 2e 4a 81 3c 90 3e 55 04 90 35 4a 81 3c 90 3f 5c 04 80 35 4a 00 80 3e 55 00 90 37 53 83 04 90 33 4a 00 90 3c 53 18 80 37 53 84 14 80 2e 4a 10 80 3c 53 08 90 2e 53 04 80 33 4a 1c 80 3f 5c 81 1c 90 35 46 81 3c 90 33 4a 08 90 3c 53 08 80 35 46 81 28 80 33 4a 04 90 35 53 08 90 3e 53 04 80 3c 53 86 74 80 2e 53 40 80 35 53 04 90 2e 55 18 80 3e 53 81 10 80 2e 55 18 90 2e 4a 81 3c 90 3e 55 04 90 35 4a 81 3c 90 3f 5c 04 80 35 4a 00 80 3e 55 00 90 37 53 83 04 90 33 4a 00 90 3c 53 18 80 37 53 84 10 80 3f 5c 04 80 2e 4a 10 80 3c 53 08 90 2e 5c 00 90 35 53 04 80 33 4a 04 90 3e 5c 83 64 80 35 53 34 80 3e 5c 14 90 3f 53 04 90 37 5c 84 18 80 37 5c 2c 90 41 5c 00 90 39 5c 0c 80 3f 53 82 14 80 2e 5c 3c 80 39 5c 14 80 41 5c 0c 90 2e 57 00 90 3e 53 0c 90 35 53 84 34 90 41 42 81 3c 90 4a 53 81 40 90 3f 4a 48 80 41 42 30 80 4a 53 48 90 48 53 82 58 80 35 53 0c 80 2e 57 10 80 3e 53 08 80 3f 4a 10 90 2e 5c 00 90 35 53 00 90 41 46 08 90 3e 5c 08 80 48 53 83 5c 80 35 53 34 80 3e 5c 04 80 41 46 10 90 3f 53 04 90 37 5c 82 70 90 3e 42 04 80 3f 53 81 44 90 3a 42 40 80 3e 42 82 28 80 2e 5c 0c 80 3a 42 04 80 37 5c 10 90 3a 50 00 90 3e 5c 00 90 2b 5c 08 90 33 50 85 68 80 33 50 14 80 2b 5c 00 90 2d 5c 00 90 3c 50 00 90 35 4a 04 80 3e 5c 1c 80 3a 50 85 44 80 35 4a 10 80 2d 5c 08 80 3c 50 08 90 3c 58 04 90 27 5c 00 90 37 46 83 68 80 37 46 44 90 3e 5b 04 90 37 5c 08 80 3c 58 81 10 80 27 5c 34 90 26 5c 81 1c 80 37 5c 14 90 36 55 84 14 80 3e 5b 10 80 36 55 20 80 26 5c 10 90 2b 5c 00 90 3c 59 00 90 3e 4d 82 58 80 3c 59 1c 90 3a 58 82 40 80 3e 4d 14 80 3a 58 00 80 2b 5c 28 90 3e 50 00 90 29 5b 00 90 39 5c 82 5c 80 39 5c 24 90 3a 58 82 60 80 3a 58 28 80 29 5b 04 90 3a 56 04 90 27 55 00 90 37 53 04 80 3e 50 83 50 80 27 55 6c 90 27 4a 24 80 37 53 81 14 90 37 46 08 80 3a 56 81 30 90 3a 4a 81 4c 90 3f 5c 81 14 80 3f 5c 04 80 37 46 04 80 3a 4a 20 90 3a 5c 00 90 3e 65 0c 90 35 53 04 80 27 4a 81 34 90 2e 5c 84 04 80 35 53 34 90 35 4a 00 90 41 4a 81 44 90 4a 53 10 80 3a 5c 81 30 90 3f 52 04 80 41 4a 04 80 35 4a 04 90 3a 36 81 30 90 48 53 04 80 3a 36 00 90 35 42 08 80 4a 53 64 80 3e 65 50 90 3e 53 04 80 3f 52 40 80 2e 5c 70 80 35 42 0c 80 3e 53 00 80 48 53 00 90 46 58 08 90 2e 5c 00 90 35 53 08 90 3e 5c 83 64 80 35 53 34 80 3e 5c 14 90 3f 53 04 90 37 5c 82 60 80 3f 53 1c 90 3e 4f 81 1c 80 37 5c 20 90 3a 4f 78 80 46 58 44 90 35 55 1c 80 3a 4f 54 80 2e 5c 5c 90 2e 57 82 74 90 41 46 04 90 48 46 81 44 90 43 46 04 80 41 46 00 90 4b 5c 1c 80 48 46 82 64 90 41 42 04 90 4a 53 08 80 43 46 14 80 4b 5c 81 04 80 3e 4f 20 90 3e 42 08 90 46 4a 08 80 41 42 04 80 4a 53 81 20 90 41 4d 14 80 46 4a 81 0c 80 35 55 08 80 2e 57 08 80 41 4d 14 80 3e 42 08 90 41 3e 04 90 2e 5c 00 90 35 53 00 90 3e 5c 83 6c 80 35 53 2c 80 3e 5c 24 90 3a 3f 00 90 3f 53 00 90 37 5c 0c 80 41 3e 82 6c 80 3f 53 08 80 37 5c 00 80 3a 3f 00 90 3e 52 81 40 90 3a 52 81 28 80 2e 5c 10 90 2e 4a 00 90 35 44 81 14 80 3e 52 2c 80 2e 4a 04 90 2b 5c 00 90 37 46 00 90 3e 53 08 80 3a 52 04 80 35 44 81 3c 90 33 4f 81 3c 90 3a 46 81 3c 90 3c 53 20 80 3e 53 81 00 80 33 4f 08 80 3c 53 0c 80 37 46 0c 90 39 42 00 90 3c 58 04 80 2b 5c 00 90 2d 5c 18 80 3a 46 81 28 90 35 4a 81 44 80 35 4a 04 90 41 53 81 38 90 35 4a 81 18 80 3c 58 18 80 39 42 04 80 2d 5c 10 90 3c 58 04 90 27 5c 00 90 37 46 18 80 35 4a 0c 80 41 53 83 44 80 37 46 44 90 3e 5b 0c 80 3c 58 81 10 80 27 5c 24 90 37 54 10 90 26 5c 81 14 80 37 54 08 90 36 3e 82 60 80 36 3e 2c 90 36 2e 18 90 39 3a 81 08 80 3e 5b 18 80 36 2e 0c 80 39 3a 08 80 26 5c 08 90 3e 52 04 90 3c 4a 04 90 2b 5c 00 90 37 4a 81 20 90 3a 3a 04 80 3c 4a 83 78 80 3e 52 08 80 37 4a 24 80 2b 5c 04 80 3a 3a 20 90 3a 46 00 90 3e 4a 04 90 37 53 00 90 29 5b 82 7c 90 43 52 82 6c 80 43 52 08 80 3a 46 04 80 3e 4a 04 80 37 53 0c 90 43 57 04 80 29 5b 00 90 3a 56 04 90 3f 4c 04 90 27 55 82 70 80 3a 56 0c 90 37 42 58 80 27 55 30 80 3f 4c 24 80 43 57 10 80 37 42 00 90 3a 48 04 90 3f 4f 00 90 46 53 04 90 27 4a 81 14 80 3a 48 0c 80 46 53 04 80 3f 4f 14 90 37 53 00 90 3a 32 81 20 80 3a 32 00 80 37 53 18 90 46 4a 00 90 3a 4a 08 90 3f 5c 00 90 41 41 81 24 80 41 41 00 80 3a 4a 04 80 3f 5c 00 80 46 4a 0c 90 3a 36 00 90 37 42 81 38 80 37 42 00 80 3a 36 14 90 3a 5c 00 90 3e 65 08 90 35 53 08 80 27 4a 81 34 90 2e 5c 81 04 80 35 53 34 90 35 46 81 40 90 3c 53 08 80 3e 65 81 3c 90 3e 4a 81 2c 80 3c 53 00 80 3a 5c 08 80 3e 4a 08 90 3a 46 08 90 37 53 00 90 3f 56 08 80 35 46 82 50 80 3f 56 10 80 37 53 00 80 3a 46 14 90 3a 42 04 90 37 4a 00 90 3f 65 81 7c 80 2e 5c 74 80 37 4a 04 80 3f 65 08 80 3a 42 04 90 39 65 00 90 35 5c 04 90 29 5f 84 18 80 35 5c 14 80 29 5f 04 90 2b 53 0c 90 3a 4a 04 90 37 53 08 80 39 65 81 18 80 37 53 14 90 2d 65 04 90 39 5c 04 90 3c 65 0c 80 2b 53 0c 80 3a 4a 82 50 80 3c 65 08 80 39 5c 0c 90 35 53 81 38 80 35 53 00 90 3f 53 04 90 3c 5c 81 2c 80 2d 65 04 80 3c 5c 04 80 3f 53 08 90 3e 5c 04 90 2e 5c 00 90 3a 53 82 78 90 35 3a 70 80 3e 5c 50 90 3e 61 81 54 80 3a 53 74 80 35 3a 40 90 35 4a 81 40 90 43 61 4c 80 3e 61 82 18 80 43 61 04 80 35 4a 08 80 2e 5c 14 90 41 62 00 90 3c 53 04 90 2d 5b 81 38 90 35 42 1c 80 3c 53 81 18 80 35 42 00 90 3c 4a 18 80 41 62 81 08 80 3c 4a 2c 90 3c 5c 00 90 3f 5b 82 48 80 3c 5c 0c 80 3f 5b 2c 90 35 42 00 90 3c 3f 00 90 3e 5d 82 64 80 3c 3f 18 90 3a 58 81 30 80 35 42 08 80 3e 5d 00 80 2d 5b 0c 90 3e 61 08 90 35 4a 00 90 2e 5c 84 04 80 3a 58 38 90 3a 3e 81 18 80 3e 61 04 80 35 4a 10 80 2e 5c 08 90 26 5c 04 90 35 4a 00 90 3e 65 82 08 90 3f 5c 10 80 3e 65 81 70 90 41 61 34 80 3f 5c 81 28 80 3a 3e 1c 80 35 4a 04 90 27 5b 04 80 26 5c 00 90 3c 5c 00 90 45 63 04 80 41 61 81 34 90 43 55 10 80 3c 5c 81 2c 90 3c 4c 10 80 43 55 81 34 90 41 4a 81 28 80 27 5b 0c 80 41 4a 10 90 26 5c 00 90 3a 5b 00 90 41 61 08 80 3c 4c 00 80 45 63 81 40 90 35 4f 08 80 3a 5b 81 30 90 3a 4a 1c 80 41 61 81 24 90 41 53 81 10 80 35 4f 04 80 26 5c 20 80 3a 4a 04 80 41 53 0c 90 27 5e 04 90 41 53 00 90 45 60 81 3c 90 3a 3a 70 80 45 60 1c 80 41 53 2c 90 46 53 5c 80 3a 3a 64 90 41 5e 7c 80 27 5e 44 90 26 53 81 38 90 3a 3e 08 80 46 53 08 80 41 5e 81 30 90 41 5b 24 80 3a 3e 81 18 90 3a 3a 81 3c 80 3a 3a 0c 90 2b 53 0c 80 26 53 00 90 3a 56 00 90 3e 5d 14 80 41 5b 84 2c 90 35 4a 34 80 3e 5d 64 80 3a 56 28 90 28 5c 04 90 37 4e 00 90 3c 53 08 80 2b 53 04 80 35 4a 82 74 90 34 53 81 40 80 28 5c 00 90 28 52 81 20 80 28 52 04 80 37 4e 08 80 34 53 0c 90 3a 5b 00 90 29 65 00 90 33 46 20 80 3c 53 81 1c 90 35 4a 18 80 3a 5b 81 24 90 3c 48 81 10 80 35 4a 1c 80 3c 48 04 80 33 46 14 90 3e 4a 04 90 35 4a 81 14 80 3e 4a 14 80 35 4a 18 90 3f 59 04 90 37 62 81 30 80 29 65 0c 90 24 53 81 1c 80 37 62 10 80 3f 59 0c 80 24 53 08 90 27 53 04 90 3a 5c 08 90 43 5f 81 28 90 24 53 14 80 27 53 81 1c 80 3a 5c 10 80 43 5f 14 80 24 53 00 90 39 5c 00 90 41 5f 04 90 29 5f 82 34 80 39 5c 1c 80 41 5f 2c 90 39 42 04 90 3c 42 81 2c 80 29 5f 04 90 2b 53 00 90 35 46 0c 80 39 42 08 80 3c 42 7c 80 35 46 34 90 2d 65 08 90 39 5c 04 90 3c 53 08 80 2b 53 82 5c 80 3c 53 00 80 39 5c 0c 90 3c 5c 04 90 3f 4a 81 44 90 35 42 81 24 80 35 42 04 80 2d 65 0c 80 3f 4a 00 80 3c 5c 04 90 3e 5c 04 90 2e 5c 00 90 3a 53 81 38 90 35 3e 81 10 80 3e 5c 34 90 3e 53 81 0c 80 2e 5c 28 80 3a 53 08 90 3a 42 04 90 41 4a 08 90 2e 5c 81 24 80 3a 42 0c 80 35 3e 08 90 3a 53 00 90 46 5e 08 80 3e 53 82 48 80 3a 53 20 80 46 5e 08 80 41 4a 10 90 3a 4a 00 90 43 5c 82 50 80 2e 5c 2c 80 43 5c 04 90 41 62 00 90 39 53 04 90 29 5b 0c 80 3a 4a 81 2c 90 35 42 1c 80 39 53 81 18 80 35 42 00 90 3c 4a 18 80 41 62 81 08 80 3c 4a 0c 80 29 5b 20 90 2a 65 00 90 3c 5c 00 90 3f 5b 82 7c 80 3f 5b 08 80 3c 5c 00 90 3e 46 81 3c 90 36 42 81 2c 80 2a 65 10 90 39 4a 00 90 2d 3a 81 34 80 2d 3a 00 80 3e 46 04 80 39 4a 04 90 2b 5c 04 80 36 42 00 90 32 4a 81 44 90 39 46 81 38 90 3a 4a 82 44 80 32 4a 08 80 39 46 10 80 3a 4a 24 90 2e 5c 00 90 3a 46 04 90 3e 65 04 80 2b 5c 81 64 80 3a 46 20 90 3c 4a 00 90 3f 5c 10 80 3e 65 81 44 80 3c 4a 28 90 3e 53 04 90 41 61 34 80 3f 5c 81 24 80 3e 53 24 90 27 5b 04 80 2e 5c 00 90 3c 5c 00 90 45 63 04 80 41 61 81 34 90 43 55 10 80 3c 5c 81 2c 90 3c 4c 10 80 43 55 81 34 90 41 4a 81 28 80 27 5b 0c 80 41 4a 10 90 26 5c 00 90 3a 5b 00 90 41 61 08 80 3c 4c 00 80 45 63 81 40 90 39 44 08 80 3a 5b 81 30 90 3a 4a 1c 80 41 61 81 24 90 41 53 81 10 80 39 44 04 80 26 5c 20 80 3a 4a 04 80 41 53 0c 90 27 5e 04 90 41 53 00 90 45 60 81 3c 90 3a 3a 70 80 45 60 1c 80 41 53 2c 90 46 53 81 40 90 41 5e 7c 80 27 5e 44 90 26 53 44 80 3a 3a 74 90 3a 4c 84 04 80 41 5e 20 80 3a 4c 04 80 46 53 1c 90 2b 53 0c 80 26 53 00 90 3a 56 00 90 3e 5d 84 40 90 35 4a 34 80 3e 5d 64 80 3a 56 28 90 28 5c 04 90 3c 53 04 90 37 5c 04 80 2b 53 04 80 35 4a 82 74 90 34 53 82 48 80 37 5c 24 80 34 53 04 80 28 5c 08 90 3f 5c 00 90 2c 61 00 90 37 65 20 80 3c 53 82 60 90 3e 53 20 80 3f 5c 82 2c 80 37 65 20 80 2c 61 0c 80 3e 53 00 90 3c 5c 08 90 35 53 08 90 29 61 82 6c 80 35 53 04 90 3a 4a 04 90 33 49 82 60 80 3a 4a 00 80 3c 5c 18 80 29 61 00 90 2e 5c 04 80 33 49 81 3c 90 35 4a 81 44 90 3c 53 81 40 90 3e 53 83 0c 90 41 3e 81 34 90 48 4a 81 40 90 4a 4a 83 0c 90 4d 3a 10 80 41 3e 0c 80 48 4a 04 80 4a 4a 81 14 90 54 4a 81 44 90 56 53 86 44 80 4d 3a 0c 80 56 53 00 80 54 4a 1c 80 35 4a 04 80 2e 5c 10 80 3e 53 04 80 3c 53 40 90 49 58 08 90 31 5c 00 90 38 53 08 90 41 5c 83 64 80 38 53 34 80 41 5c 14 90 42 53 04 90 3a 5c 82 60 80 42 53 1c 90 41 4f 81 1c 80 3a 5c 20 90 3d 4f 78 80 49 58 44 90 38 55 1c 80 3d 4f 54 80 31 5c 5c 90 31 57 84 4c 90 44 3e 81 38 90 4d 5c 50 80 44 3e 78 90 42 42 81 20 80 4d 5c 18 80 41 4f 08 90 4b 5c 40 80 42 42 7c 90 41 42 81 10 80 38 55 08 80 31 57 20 80 41 42 04 90 44 3e 04 90 31 5c 00 90 38 53 00 90 41 5c 1c 80 4b 5c 83 50 80 38 53 2c 80 41 5c 24 90 3d 3f 00 90 42 53 00 90 3a 5c 0c 80 44 3e 82 6c 80 42 53 08 80 3a 5c 00 80 3d 3f 00 90 41 52 81 40 90 3d 52 81 28 80 31 5c 10 90 31 4a 00 90 38 44 81 14 80 41 52 2c 80 31 4a 04 90 2e 5c 00 90 3a 46 00 90 41 53 08 80 3d 52 04 80 38 44 81 3c 90 36 4f 81 3c 90 3d 46 81 3c 90 3f 53 20 80 41 53 81 00 80 36 4f 08 80 3f 53 0c 80 3a 46 0c 90 3c 42 00 90 3f 58 04 80 2e 5c 00 90 30 5c 18 80 3d 46 81 28 90 38 4a 81 44 80 38 4a 04 90 44 53 81 38 90 38 4a 81 18 80 3f 58 18 80 3c 42 04 80 30 5c 10 90 3f 58 04 90 2a 5c 00 90 3a 46 18 80 38 4a 0c 80 44 53 83 44 80 3a 46 44 90 41 5b 0c 80 3f 58 81 10 80 2a 5c 24 90 3a 54 10 90 29 5c 81 14 80 3a 54 08 90 39 3e 82 60 80 39 3e 2c 90 39 2e 18 90 3c 3a 81 08 80 41 5b 18 80 39 2e 0c 80 3c 3a 08 80 29 5c 08 90 41 52 04 90 3f 4a 04 90 2e 5c 00 90 3a 4a 81 20 90 3d 3a 04 80 3f 4a 83 78 80 41 52 08 80 3a 4a 24 80 2e 5c 04 80 3d 3a 20 90 3d 46 00 90 41 4a 04 90 3a 53 00 90 2c 5b 82 7c 90 46 52 82 6c 80 46 52 08 80 3d 46 04 80 41 4a 04 80 3a 53 0c 90 3a 57 04 80 2c 5b 00 90 3d 56 04 90 42 4c 04 90 2a 55 85 40 80 42 4c 08 80 3a 57 10 80 2a 55 00 80 3d 56 1c 90 2e 4a 04 90 3a 4a 04 90 3d 53 00 90 42 46 81 2c 80 2e 4a 08 90 2a 53 82 64 80 3d 53 00 80 3a 4a 14 80 42 46 10 90 3d 5c 00 90 41 65 08 90 38 53 81 14 80 2a 53 28 90 31 5c 81 04 80 38 53 34 90 38 46 81 40 90 3f 53 08 80 41 65 81 3c 90 41 4a 81 2c 80 3f 53 00 80 3d 5c 08 80 41 4a 08 90 3d 46 08 90 3a 53 00 90 42 56 08 80 38 46 82 50 80 42 56 10 80 3a 53 00 80 3d 46 14 90 3d 42 04 90 3a 4a 00 90 42 65 81 7c 80 31 5c 74 80 3a 4a 04 80 42 65 08 80 3d 42 04 90 3c 65 00 90 38 5c 04 90 2c 5f 84 18 80 38 5c 14 80 2c 5f 04 90 2e 53 0c 90 3d 4a 04 90 3a 53 08 80 3c 65 81 18 80 3a 53 14 90 30 65 04 90 3c 5c 04 90 3f 65 0c 80 2e 53 0c 80 3d 4a 82 50 80 3f 65 08 80 3c 5c 0c 90 38 53 81 38 80 38 53 00 90 42 53 04 90 3f 5c 81 2c 80 30 65 04 80 3f 5c 04 80 42 53 08 90 41 5c 04 90 31 5c 00 90 3d 53 82 78 90 38 3a 70 80 41 5c 50 90 41 61 81 54 80 3d 53 74 80 38 3a 40 90 38 4a 81 40 90 46 61 4c 80 41 61 82 18 80 46 61 04 80 38 4a 08 80 31 5c 14 90 44 62 00 90 3f 53 04 90 2c 5b 81 38 90 38 42 1c 80 3f 53 81 18 80 38 42 00 90 3f 4a 18 80 44 62 81 08 80 3f 4a 2c 90 3f 5c 00 90 42 5b 82 48 80 3f 5c 0c 80 42 5b 2c 90 38 42 00 90 3f 3f 00 90 41 5d 82 64 80 3f 3f 18 90 3d 58 81 30 80 38 42 08 80 41 5d 00 80 2c 5b 0c 90 41 61 08 90 38 4a 00 90 31 5c 84 04 80 3d 58 38 90 3d 3e 81 18 80 41 61 04 80 38 4a 10 80 31 5c 0c 90 38 4a 00 90 41 65 04 90 29 53 81 60 80 29 53 24 90 42 5c 04 90 2a 4a 0c 80 41 65 81 44 80 2a 4a 24 90 2c 53 08 90 44 61 34 80 42 5c 81 28 80 3d 3e 04 80 2c 53 18 80 38 4a 04 90 2a 5b 04 90 3f 5c 00 90 48 63 04 80 44 61 81 34 90 46 55 10 80 3f 5c 81 2c 90 3f 4c 10 80 46 55 81 34 90 44 4a 81 28 80 2a 5b 0c 80 44 4a 10 90 29 5c 00 90 3d 5b 00 90 44 61 08 80 3f 4c 00 80 48 63 81 40 90 38 4f 08 80 3d 5b 81 30 90 3d 4a 1c 80 44 61 81 24 90 44 53 81 10 80 38 4f 04 80 29 5c 20 80 3d 4a 04 80 44 53 0c 90 2a 5e 04 90 44 53 00 90 48 60 81 3c 90 3d 3a 70 80 48 60 1c 80 44 53 2c 90 49 53 5c 80 3d 3a 64 90 44 5e 7c 80 2a 5e 44 90 29 53 81 38 90 3d 3e 08 80 49 53 08 80 44 5e 81 30 90 44 5b 24 80 3d 3e 81 18 90 3d 3a 81 3c 80 3d 3a 0c 90 2e 53 0c 80 29 53 00 90 3d 56 00 90 41 5d 14 80 44 5b 84 2c 90 38 4a 34 80 41 5d 64 80 3d 56 28 90 27 5c 04 90 3a 4e 00 90 3f 53 08 80 2e 53 04 80 38 4a 82 74 90 37 53 81 40 80 27 5c 00 90 2e 52 81 20 80 2e 52 04 80 3a 4e 08 80 37 53 0c 90 3d 5b 00 90 2c 65 00 90 36 46 20 80 3f 53 81 1c 90 38 4a 18 80 3d 5b 81 24 90 3f 48 81 10 80 38 4a 1c 80 3f 48 04 80 36 46 14 90 41 4a 04 90 38 4a 81 14 80 41 4a 14 80 38 4a 04 80 2c 65 14 90 42 59 04 90 3a 62 04 90 2c 53 81 2c 80 2c 53 04 90 2e 46 81 20 80 2e 46 04 80 3a 62 10 80 42 59 0c 90 31 53 0c 90 3d 5c 08 90 46 5f 81 04 80 31 53 20 90 2c 53 81 34 80 3d 5c 08 80 2c 53 08 80 46 5f 14 90 3c 5c 00 90 44 5f 04 90 2c 5f 82 34 80 3c 5c 1c 80 44 5f 2c 90 3c 42 04 90 3f 42 81 30 90 38 46 0c 80 3c 42 08 80 3f 42 7c 80 38 46 3c 90 3c 5c 04 90 3f 53 82 5c 80 2c 5f 08 80 3f 53 00 80 3c 5c 0c 90 3f 5c 04 90 2c 53 00 90 42 4a 81 30 80 2c 53 14 90 38 42 04 90 30 53 81 20 80 38 42 10 80 30 53 00 80 42 4a 00 80 3f 5c 04 90 41 5c 04 90 31 5c 00 90 3d 53 81 38 90 38 3e 81 10 80 41 5c 34 90 41 53 81 0c 80 31 5c 28 80 3d 53 08 90 3d 42 04 90 44 4a 08 90 31 5c 81 24 80 3d 42 0c 80 38 3e 08 90 3d 53 00 90 49 5e 08 80 41 53 82 48 80 3d 53 20 80 49 5e 08 80 44 4a 10 90 3d 4a 00 90 46 5c 82 50 80 31 5c 2c 80 46 5c 04 90 44 62 00 90 3c 53 04 90 30 5b 0c 80 3d 4a 81 2c 90 38 42 1c 80 3c 53 81 18 80 38 42 00 90 3f 4a 18 80 44 62 81 08 80 3f 4a 0c 80 30 5b 20 90 3f 5c 00 90 42 5b 04 90 30 50 81 24 80 30 50 20 90 2d 65 81 34 80 42 5b 08 80 3f 5c 00 90 41 46 81 3c 90 39 42 81 18 80 2d 65 24 90 3c 4a 00 90 2d 3a 81 34 80 2d 3a 00 80 41 46 04 80 3c 4a 04 90 2e 5c 04 80 39 42 00 90 35 4a 81 44 90 3c 46 81 38 90 3d 4a 82 44 80 35 4a 08 80 3c 46 10 80 3d 4a 24 90 2c 5c 00 90 3d 46 04 90 41 65 04 80 2e 5c 81 64 80 3d 46 20 90 3f 4a 00 90 42 5c 10 80 41 65 81 44 80 3f 4a 28 90 41 53 04 90 44 61 34 80 42 5c 81 24 80 41 53 24 90 2a 5b 04 80 2c 5c 00 90 3f 5c 00 90 48 63 04 80 44 61 81 34 90 46 55 10 80 3f 5c 81 2c 90 3f 4c 10 80 46 55 81 34 90 44 4a 81 28 80 2a 5b 0c 80 44 4a 10 90 29 5c 00 90 3d 5b 00 90 44 61 08 80 3f 4c 00 80 48 63 81 40 90 3c 44 08 80 3d 5b 81 30 90 3d 4a 1c 80 44 61 81 24 90 44 53 81 10 80 3c 44 04 80 29 5c 20 80 3d 4a 04 80 44 53 0c 90 2a 5e 04 90 44 53 00 90 48 60 81 3c 90 3d 3a 70 80 48 60 1c 80 44 53 2c 90 49 53 81 40 90 44 5e 7c 80 2a 5e 44 90 29 53 44 80 3d 3a 74 90 3d 4c 84 04 80 44 5e 20 80 3d 4c 04 80 49 53 1c 90 2e 53 0c 80 29 53 00 90 3d 56 00 90 41 5d 84 40 90 38 4a 34 80 41 5d 64 80 3d 56 28 90 27 5c 04 90 3f 53 04 90 3a 5c 04 80 2e 53 04 80 38 4a 82 74 90 37 53 82 48 80 3a 5c 24 80 37 53 04 80 27 5c 08 90 42 5c 00 90 2f 61 00 90 3a 65 20 80 3f 53 82 60 90 41 53 20 80 42 5c 82 2c 80 3a 65 20 80 2f 61 0c 80 41 53 08 90 36 57 00 90 3f 63 08 90 2c 61 81 34 90 3d 4a 81 44 90 38 53 2c 80 3f 63 81 18 90 3f 5c 81 30 80 2c 61 04 80 38 53 08 90 45 58 04 80 36 57 04 80 3d 4a 00 90 2d 5c 00 90 34 53 04 80 3f 5c 04 90 3d 5c 83 64 80 34 53 34 80 3d 5c 14 90 3e 53 04 90 36 5c 82 60 80 3e 53 1c 90 3d 4f 81 1c 80 36 5c 20 90 39 4f 78 80 45 58 44 90 34 55 1c 80 39 4f 54 80 2d 5c 5c 90 2d 57 84 4c 90 40 3e 81 38 90 49 5c 50 80 40 3e 78 90 3e 42 81 20 80 49 5c 18 80 3d 4f 08 90 47 5c 40 80 3e 42 7c 90 3d 42 81 10 80 34 55 08 80 2d 57 20 80 3d 42 04 90 40 3e 04 90 2d 5c 00 90 34 53 00 90 3d 5c 1c 80 47 5c 83 50 80 34 53 2c 80 3d 5c 24 90 39 3f 00 90 3e 53 00 90 36 5c 0c 80 40 3e 81 04 80 2d 5c 34 90 2a 5c 81 34 80 3e 53 08 80 36 5c 00 80 39 3f 00 90 3d 52 81 40 90 39 52 81 34 80 2a 5c 04 90 2d 4a 00 90 34 44 81 14 80 3d 52 2c 80 2d 4a 04 90 29 5c 00 90 35 46 00 90 3e 53 08 80 39 52 04 80 34 44 81 3c 90 32 4f 81 3c 90 39 46 81 3c 90 3b 53 20 80 3e 53 81 00 80 32 4f 08 80 3b 53 0c 80 35 46 0c 90 3b 42 00 90 3e 58 1c 80 39 46 81 28 90 35 4a 81 1c 80 3e 58 18 80 3b 42 08 80 29 5c 08 80 35 4a 00 90 28 5c 00 90 38 5c 00 90 3e 53 82 58 80 3e 53 0c 80 38 5c 04 80 28 5c 18 90 26 5c 00 90 3b 58 04 90 36 46 83 68 80 36 46 58 90 36 42 81 04 80 26 5c 14 80 3b 58 18 80 36 42 0c 90 25 5c 00 90 3d 60 81 38 90 38 3a 81 48 90 35 53 82 5c 80 3d 60 14 80 35 53 04 80 25 5c 08 80 38 3a 00 90 3d 52 04 90 3b 4a 04 90 2a 5c 00 90 36 4a 81 20 90 39 3a 04 80 3b 4a 83 78 80 3d 52 08 80 36 4a 24 80 2a 5c 04 80 39 3a 20 90 39 46 00 90 3d 4a 04 90 40 53 00 90 42 53 00 90 28 5b 85 70 80 39 46 04 80 40 53 00 80 3d 4a 04 80 42 53 10 80 28 5b 04 90 3e 65 04 90 2d 53 00 90 37 53 00 90 3b 5c 00 90 42 46 00 90 45 4a 85 60 80 3e 65 04 80 3b 5c 08 80 37 53 00 80 2d 53 04 80 45 4a 00 80 42 46 0c 90 2d 3e 00 90 3b 3a 00 90 3e 65 00 90 42 5c 04 90 37 46 00 90 45 53 85 2c 80 37 46 04 80 2d 3e 10 80 3b 3a 04 80 45 53 04 80 3e 65 04 80 42 5c 20 90 2d 53 04 90 3b 65 00 90 3e 65 00 90 40 5c 00 90 45 3e 04 90 37 53 64 80 37 53 00 80 2d 53 08 80 45 3e 04 80 3b 65 04 80 3e 65 04 80 40 5c 83 4c 90 42 4a 81 34 80 42 4a 08 90 3e 46 08 90 32 5c 00 90 3b 53 00 90 43 56 82 58 80 43 56 10 80 3b 53 00 80 3e 46 14 90 3e 42 04 90 3b 4a 00 90 43 65 82 64 80 32 5c 0c 80 3b 4a 04 80 43 65 08 80 3e 42 04 90 3d 65 00 90 40 5c 04 90 2a 5f 00 90 3b 53 00 90 45 46 04 90 39 42 84 30 90 3e 42 81 18 80 3b 53 04 80 39 42 08 80 40 5c 04 80 45 46 04 80 3d 65 0c 90 39 53 04 90 2d 4a 18 80 2a 5f 81 20 80 2d 4a 08 80 3e 42 00 90 43 65 0c 90 31 65 82 18 80 39 53 5c 90 39 4a 68 80 43 65 30 80 31 65 24 80 39 4a 04 90 42 5c 04 90 32 5c 00 90 3e 53 82 78 90 39 3a 70 80 42 5c 50 90 42 61 81 54 80 3e 53 74 80 39 3a 40 90 39 4a 81 40 90 47 61 4c 80 42 61 82 18 80 47 61 04 80 39 4a 08 80 32 5c 14 90 31 58 00 90 45 62 00 90 40 53 81 3c 90 39 42 1c 80 40 53 81 18 80 39 42 00 90 40 4a 18 80 45 62 81 08 80 40 4a 2c 90 40 5c 00 90 43 5b 81 18 80 31 58 2c 90 31 65 81 04 80 40 5c 0c 80 43 5b 2c 90 39 42 00 90 40 3f 00 90 42 5d 82 64 80 40 3f 18 90 3e 58 10 80 31 65 00 90 2d 4a 81 20 80 39 42 08 80 2d 4a 00 80 42 5d 0c 90 42 61 08 90 39 4a 00 90 32 5c 84 04 80 3e 58 38 90 3e 3e 81 18 80 42 61 04 80 39 4a 10 80 32 5c 0c 90 39 4a 00 90 42 65 04 90 26 53 81 60 80 26 53 24 90 43 5c 04 90 28 4a 0c 80 42 65 81 44 80 28 4a 24 90 2a 53 08 90 45 61 34 80 43 5c 81 28 80 3e 3e 04 80 2a 53 18 80 39 4a 04 90 2b 5b 04 90 40 5c 00 90 49 63 04 80 45 61 81 34 90 47 55 10 80 40 5c 81 2c 90 40 4c 10 80 47 55 81 34 90 45 4a 81 28 80 2b 5b 0c 80 45 4a 10 90 2a 5c 00 90 3e 5b 00 90 45 61 08 80 40 4c 00 80 49 63 81 40 90 39 4f 08 80 3e 5b 81 30 90 3e 4a 1c 80 45 61 81 24 90 45 53 81 10 80 39 4f 04 80 2a 5c 20 80 3e 4a 04 80 45 53 0c 90 2b 5e 04 90 45 53 00 90 49 60 81 3c 90 3e 3a 70 80 49 60 1c 80 45 53 2c 90 4a 53 5c 80 3e 3a 64 90 45 5e 7c 80 2b 5e 44 90 2a 53 81 38 90 3e 3e 08 80 4a 53 08 80 45 5e 81 30 90 45 5b 24 80 3e 3e 81 18 90 3e 3a 81 3c 80 3e 3a 0c 90 3e 65 00 90 42 5c 00 90 2f 53 04 90 39 53 08 80 2a 53 14 80 45 5b 85 30 80 42 5c 1c 80 39 53 04 80 3e 65 14 90 42 4a 04 90 3e 53 00 90 38 53 00 90 3b 53 04 90 28 5c 0c 80 2f 53 82 60 90 40 53 28 80 3e 53 81 30 80 28 5c 00 90 2f 52 81 14 80 40 53 0c 80 2f 52 04 80 3b 53 00 80 38 53 10 90 40 53 04 80 42 4a 00 90 3e 5b 00 90 2d 65 00 90 37 46 81 3c 90 3d 38 18 80 3e 5b 81 24 90 39 48 81 10 80 3d 38 1c 80 39 48 04 80 37 46 0c 80 40 53 08 90 42 4a 04 90 39 4a 81 14 80 42 4a 14 80 39 4a 04 80 2d 65 14 90 43 59 04 90 3b 62 04 90 2d 53 81 2c 80 2d 53 04 90 2f 46 81 20 80 2f 46 04 80 3b 62 10 80 43 59 0c 90 32 53 0c 90 3e 5c 08 90 47 5f 81 04 80 32 53 20 90 2d 53 81 34 80 3e 5c 08 80 2d 53 08 80 47 5f 14 90 3d 5c 00 90 45 5f 04 90 2d 5f 82 34 80 3d 5c 1c 80 45 5f 2c 90 3d 42 04 90 40 42 81 30 90 39 46 0c 80 3d 42 08 80 40 42 7c 80 39 46 3c 90 3d 5c 04 90 40 53 82 5c 80 2d 5f 08 80 40 53 00 80 3d 5c 0c 90 40 5c 04 90 2d 53 00 90 43 4a 81 30 80 2d 53 14 90 39 42 04 90 31 53 81 20 80 39 42 10 80 31 53 00 80 43 4a 00 80 40 5c 04 90 42 5c 04 90 32 5c 00 90 3e 53 81 38 90 39 3e 81 10 80 42 5c 34 90 42 53 81 0c 80 32 5c 28 80 3e 53 08 90 3e 42 04 90 45 4a 08 90 32 5c 81 24 80 3e 42 0c 80 39 3e 08 90 3e 53 00 90 4a 5e 08 80 42 53 82 48 80 3e 53 20 80 4a 5e 08 80 45 4a 10 90 3e 4a 00 90 47 5c 82 50 80 32 5c 2c 80 47 5c 04 80 3e 4a 00 90 45 62 00 90 3d 53 04 90 31 5b 81 38 90 39 42 1c 80 3d 53 81 18 80 39 42 00 90 40 4a 18 80 45 62 81 08 80 40 4a 0c 80 31 5b 20 90 40 5c 00 90 43 5b 04 90 31 50 81 24 80 31 50 20 90 2e 5c 81 34 80 43 5b 08 80 40 5c 00 90 42 46 81 3c 90 3a 42 08 80 2e 5c 00 90 2a 5c 81 34 90 3d 4a 81 14 80 2a 5c 20 80 42 46 04 80 3d 4a 04 90 2f 5c 04 80 3a 42 00 90 36 4a 81 44 90 3d 46 81 38 90 3e 4a 82 44 80 36 4a 08 80 3d 46 10 80 3e 4a 24 90 2d 5c 00 90 3e 46 04 90 42 65 04 80 2f 5c 81 64 80 3e 46 20 90 40 4a 00 90 43 5c 10 80 42 65 81 44 80 40 4a 28 90 42 53 04 90 45 61 34 80 43 5c 81 24 80 42 53 24 90 2b 5b 04 80 2d 5c 00 90 40 5c 00 90 49 63 04 80 45 61 81 34 90 47 55 10 80 40 5c 81 2c 90 40 4c 10 80 47 55 81 34 90 45 4a 81 28 80 2b 5b 0c 80 45 4a 10 90 2a 5c 00 90 3e 5b 00 90 45 61 08 80 40 4c 00 80 49 63 81 40 90 3d 44 08 80 3e 5b 81 30 90 3e 4a 1c 80 45 61 81 24 90 45 53 81 10 80 3d 44 04 80 2a 5c 20 80 3e 4a 04 80 45 53 0c 90 2b 5e 04 90 45 53 00 90 49 60 81 3c 90 3e 3a 70 80 49 60 1c 80 45 53 2c 90 4a 53 81 40 90 45 5e 7c 80 2b 5e 48 90 2a 53 40 80 3e 3a 74 90 3e 4c 84 04 80 45 5e 20 80 3e 4c 04 80 4a 53 2c 80 2a 53 00 90 45 65 04 90 2b 5c 00 90 41 46 00 90 49 53 83 00 90 47 5c 82 68 80 41 46 00 80 2b 5c 08 80 47 5c 00 80 45 65 08 90 2a 65 00 90 3d 53 04 80 49 53 04 90 40 5c 00 90 45 53 04 90 42 53 82 5c 80 3d 53 08 80 2a 65 14 90 3e 4a 04 90 26 5c 82 5c 80 42 53 0c 80 26 5c 04 80 45 53 04 80 40 5c 04 80 3e 4a 04 90 3a 4a 04 90 3d 53 00 90 42 54 04 90 2e 5c 00 90 40 5c 85 40 80 2e 5c 28 80 40 5c 08 80 3d 53 00 90 2f 65 00 90 39 5c 00 90 3e 65 04 80 42 54 04 80 3a 4a 81 3c 90 40 53 81 3c 90 42 65 82 38 80 2f 65 2c 80 42 65 0c 80 3e 65 0c 80 40 53 00 80 39 5c 00 90 28 53 0c 90 39 5c 00 90 3e 56 00 90 42 5d 84 74 80 42 5d 38 80 39 5c 2c 80 3e 56 08 80 28 53 20 90 28 5c 00 90 38 53 04 90 40 53 04 90 3b 5c 85 44 80 3b 5c 14 80 40 53 14 80 28 5c 08 90 43 5c 00 90 30 61 00 90 3b 65 04 90 3e 53 08 80 38 53 82 74 90 42 53 20 80 43 5c 82 2c 80 3b 65 20 80 3e 53 00 80 30 61 0c 80 42 53 10 90 2d 61 00 90 3b 53 00 90 40 53 04 90 37 5c 82 7c 90 3e 4a 82 6c 80 2d 61 10 80 3e 4a 04 90 2f 53 24 80 37 5c 00 80 3b 53 10 80 40 53 81 14 90 36 3e 81 40 90 3d 4a 81 44 90 3e 53 81 2c 90 42 36 08 90 39 4a 2c 80 2f 53 04 80 36 3e 0c 80 3e 53 00 80 3d 4a 81 04 90 47 46 81 34 90 49 4a 81 44 90 4a 53 70 90 2c 4a 18 90 32 46 1c 90 3b 4e 10 90 36 3e 04 80 39 4a 20 80 42 36 04 80 4a 53 00 80 47 46 08 80 49 4a 81 04 90 42 3a 81 50 90 47 53 81 30 90 4e 32 81 58 90 53 4a 85 68 80 3b 4e 10 80 32 46 04 80 47 53 04 80 42 3a 08 80 36 3e 00 80 2c 4a 0c 80 53 4a 14 80 4e 32 84 18 90 42 42 81 4c 90 43 53 18 80 42 42 82 5c 80 43 53 0c 90 47 55 82 18 90 3b 3e 34 90 3d 48 10 90 40 46 20 80 47 55 00 90 2a 52 18 90 45 58 84 48 80 40 46 81 10 90 40 4a 30 80 3d 48 00 80 3b 3e 81 18 90 39 3a 20 80 40 4a 81 24 90 3d 53 18 80 39 3a 81 04 80 2a 52 20 90 3e 42 28 80 3d 53 54 80 45 58 4c 90 2b 4c 00 90 37 3e 04 90 3b 4a 00 90 42 49 10 80 3e 42 84 0c 80 42 49 10 90 42 36 81 40 90 43 55 28 80 42 36 81 1c 90 39 42 81 40 90 47 53 18 80 43 55 81 50 80 2b 4c 70 80 37 3e 04 80 3b 4a 14 80 39 42 08 90 45 52 08 80 47 53 00 90 3b 46 00 90 3d 46 00 90 40 4a 0c 90 2a 4b 82 48 80 3b 46 28 90 3b 3e 81 34 80 3d 46 14 90 3e 4c 81 3c 90 34 3b 24 80 3e 4c 81 20 90 3d 4a 20 80 34 3b 81 10 80 3b 3e 14 80 3d 4a 08 90 34 28 81 38 90 3b 4a 04 80 34 28 24 80 2a 4b 68 80 45 52 18 80 40 4a 14 80 3b 4a 08 90 2b 4b 00 90 37 3e 04 90 3b 4a 00 90 42 49 84 1c 80 42 49 10 90 42 36 81 40 90 43 55 28 80 42 36 81 1c 90 39 42 81 40 90 47 53 18 80 43 55 82 20 80 2b 4b 20 80 37 3e 04 80 3b 4a 14 80 39 42 08 90 45 52 08 80 47 53 00 90 2a 4b 00 90 3b 46 00 90 3d 46 00 90 40 4a 85 78 80 3d 46 10 90 3e 4a 04 80 3b 46 81 58 80 3e 4a 24 90 39 3b 81 74 80 39 3b 00 90 3e 46 54 80 2a 4b 81 04 80 3e 46 04 80 45 52 08 90 37 46 10 80 40 4a 04 90 3b 53 00 90 3e 4a 04 90 2d 4a 04 90 42 4a 8b 40 80 37 46 28 80 3b 53 04 80 3e 4a 24 90 3d 46 0c 90 37 46 8b 30 80 3d 46 04 80 42 4a 00 80 2d 4a 1c 80 37 46 24 90 32 5c 00 90 39 53 08 90 42 5c 81 18 80 39 53 18 90 39 3e 81 38 90 40 53 81 30 80 42 5c 04 80 39 3e 08 90 3b 42 00 90 43 5c 04 80 40 53 83 04 90 42 4f 81 24 80 43 5c 18 90 3e 4f 81 3c 90 39 55 1c 80 3e 4f 54 80 32 5c 18 80 3b 42 44 90 32 57 81 18 80 39 55 20 90 39 3b 81 40 90 3e 53 18 80 39 3b 81 14 90 45 46 14 90 39 46 81 48 90 4e 4a 14 80 45 46 81 30 90 43 3a 1c 80 4e 4a 81 04 80 42 4f 1c 90 4c 46 14 80 43 3a 81 34 90 42 32 04 80 4c 46 81 00 80 39 46 10 80 3e 53 04 80 32 57 10 80 42 32 14 90 45 3e 04 90 32 5c 00 90 39 53 00 90 4a 42 00 90 42 5c 81 1c 80 39 53 14 90 39 46 81 40 90 40 53 18 80 39 46 81 10 80 42 5c 10 80 40 53 14 90 3e 3f 00 90 43 53 00 90 3b 5c 0c 80 45 3e 81 20 80 4a 42 81 4c 80 43 53 08 80 3b 5c 00 80 3e 3f 00 90 42 52 81 40 90 3e 52 81 28 80 32 5c 10 90 32 4a 00 90 39 44 81 14 80 42 52 1c 80 3e 52 10 80 32 4a 04 90 2f 5c 00 90 3e 46 00 90 42 53 0c 80 39 44 81 3c 90 37 4f 81 1c 80 3e 46 20 90 3e 46 81 3c 90 40 53 20 80 42 53 81 00 80 37 4f 08 80 40 53 18 90 3d 42 00 90 40 58 04 80 2f 5c 00 90 31 5c 18 80 3e 46 81 28 90 39 4a 81 44 80 39 4a 04 90 45 5b 81 38 90 43 4f 78 90 26 3a 18 90 36 36 08 80 40 58 18 80 3d 42 04 80 31 5c 00 90 2d 42 28 90 32 46 00 90 39 4a 04 80 43 4f 0c 80 45 5b 08 90 3e 42 08 90 42 53 96 70 80 26 3a 04 80 32 46 00 80 2d 42 08 80 39 4a 04 80 3e 42 00 80 36 36 04 80 42 53 92 44 b0 79 7f 86 00 ff 2f 00 4d 54 72 6b 00 00 06 81 00 ff 03 0a 46 49 4e 47 45 52 44 42 41 53 83 14 b1 00 00 08 c1 21 04 b1 07 64 00 b1 0a 40 00 b1 0b 7f 04 b1 5b 00 00 b1 5d 00 82 84 5c 91 1d 40 84 40 91 1f 40 0c 81 1d 40 81 30 81 1f 40 04 91 21 40 85 54 81 21 40 2c 91 22 40 8b 54 81 22 40 2c 91 21 40 8b 24 81 21 40 5c 91 22 40 85 4c 81 22 40 34 91 26 40 85 50 81 26 40 30 91 27 40 85 5c 81 27 40 24 91 26 40 85 14 81 26 40 6c 91 27 40 85 30 81 27 40 50 91 26 40 85 38 81 26 40 48 91 1f 40 85 4c 81 1f 40 34 91 1c 40 84 2c 81 1c 40 14 91 1c 38 81 20 81 1c 38 20 91 1d 40 87 2c 81 1d 40 14 91 18 40 81 28 81 18 40 18 91 1b 40 81 2c 81 1b 40 14 91 18 40 81 28 81 18 40 18 91 1d 40 84 40 91 1f 40 0c 81 1d 40 81 30 81 1f 40 04 91 21 40 85 54 81 21 40 2c 91 22 40 84 1c 81 22 40 24 91 22 40 87 18 81 22 40 28 91 1d 40 84 1c 81 1d 40 24 91 1e 40 85 60 81 1e 40 20 91 21 34 81 30 81 21 34 10 91 1f 40 85 4c 81 1f 40 34 91 22 40 85 4c 81 22 40 34 91 27 40 85 5c 81 27 40 24 91 26 40 85 14 81 26 40 6c 91 27 40 85 30 81 27 40 50 91 26 40 85 38 81 26 40 48 91 1f 40 85 4c 81 1f 40 34 91 1c 40 85 48 81 1c 40 38 91 20 40 85 28 81 20 40 58 91 1d 40 85 28 81 1d 40 58 91 22 40 97 4c 81 22 40 34 91 25 52 89 6c 81 25 52 54 91 25 40 81 14 81 25 40 2c 91 25 52 8b 34 81 25 52 4c 91 25 52 8a 20 81 25 52 20 91 25 40 81 3c 81 25 40 04 91 22 52 85 6c 81 22 52 14 91 24 52 82 5c 81 24 52 24 91 20 52 82 64 81 20 52 1c 91 1e 52 84 20 81 1e 52 20 91 1d 52 85 3c 81 1d 52 44 91 1d 40 81 30 81 1d 40 10 91 22 49 85 50 81 22 49 30 91 20 52 85 50 81 20 52 30 91 1e 52 85 48 81 1e 52 38 91 22 52 81 20 81 22 52 20 91 1e 52 83 00 91 25 40 08 81 1e 52 4c 81 25 40 0c 91 27 40 60 91 25 52 04 81 27 40 8b 38 81 25 52 44 91 20 52 84 18 81 20 52 28 91 20 40 81 28 81 20 40 18 91 24 52 84 1c 81 24 52 24 91 20 40 81 28 81 20 40 18 91 25 52 8b 5c 81 25 52 24 91 20 52 85 58 81 20 52 28 91 24 5b 81 20 81 24 5b 20 91 22 40 81 34 81 22 40 0c 91 20 49 81 40 91 25 40 14 81 20 49 81 00 81 25 40 2c 91 25 52 85 48 81 25 52 38 91 1e 52 85 48 81 1e 52 38 91 1e 52 85 4c 81 1e 52 34 91 1d 52 84 2c 81 1d 52 14 91 1d 40 81 14 81 1d 40 2c 91 1e 52 85 40 81 1e 52 40 91 1d 52 85 64 81 1d 52 1c 91 22 52 85 70 81 22 52 10 91 1b 52 83 70 81 1b 52 50 91 22 40 81 34 81 22 40 0c 91 20 52 85 60 81 20 52 20 91 20 49 81 14 81 20 49 2c 91 22 40 81 1c 81 22 40 24 91 25 52 81 2c 81 25 52 14 91 20 40 81 1c 81 20 40 24 91 20 52 88 48 81 20 52 38 91 20 51 81 24 81 20 51 1c 91 24 51 81 24 81 24 51 1c 91 25 52 88 54 81 25 52 2c 91 25 52 82 5c 81 25 52 24 91 24 52 85 60 81 24 52 20 91 21 52 83 54 81 21 52 6c 91 21 40 81 10 81 21 40 30 91 22 52 85 68 81 22 52 18 91 20 52 85 58 81 20 52 28 91 1e 52 85 5c 81 1e 52 24 91 1d 52 84 14 81 1d 52 2c 91 1d 40 81 10 81 1d 40 30 91 1e 52 84 38 81 1e 52 08 91 22 40 81 18 81 22 40 28 91 1d 52 85 5c 81 1d 52 24 91 22 52 85 58 81 22 52 28 91 1b 52 84 04 81 1b 52 3c 91 1b 40 81 24 81 1b 40 1c 91 23 52 84 2c 81 23 52 14 91 23 40 81 24 81 23 40 1c 91 20 52 82 58 81 20 52 28 91 20 52 82 58 81 20 52 28 91 21 52 8a 18 81 21 52 28 91 21 40 81 1c 81 21 40 24 91 21 52 8b 30 81 21 52 50 91 21 52 85 5c 81 21 52 24 91 1e 52 84 3c 81 1e 52 04 91 21 40 81 34 81 21 40 0c 91 1d 52 88 60 81 1d 52 20 91 1c 52 82 60 81 1c 52 20 91 1a 52 85 54 81 1a 52 2c 91 19 52 85 6c 81 19 52 14 91 1e 52 84 24 81 1e 52 1c 91 1e 40 81 20 81 1e 40 20 91 1c 52 85 68 81 1c 52 18 91 21 52 84 18 81 21 52 28 91 21 40 81 20 81 21 40 20 91 21 53 82 50 81 21 53 30 91 21 53 82 50 81 21 53 30 91 21 52 81 14 81 21 52 8a 6c 91 1e 52 85 4c 81 1e 52 34 91 25 52 84 24 81 25 52 1c 91 25 40 81 14 81 25 40 2c 91 26 52 8b 68 81 26 52 18 91 25 52 85 44 81 25 52 3c 91 25 52 84 00 81 25 52 40 91 21 40 81 14 81 21 40 2c 91 26 52 85 54 81 26 52 2c 91 1a 52 81 64 81 1a 52 1c 91 1c 4e 81 48 81 1c 4e 38 91 1e 4e 81 50 81 1e 4e 30 91 1f 52 84 1c 81 1f 52 24 91 1f 40 81 14 81 1f 40 2c 91 1e 52 84 18 81 1e 52 28 91 1e 40 81 14 81 1e 40 2c 91 1f 52 84 1c 81 1f 52 24 91 1f 40 81 14 81 1f 40 2c 91 1e 52 84 08 81 1e 52 38 91 1e 40 81 14 81 1e 40 2c 91 23 52 85 38 81 23 52 48 91 1c 52 84 08 81 1c 52 38 91 1c 49 81 40 81 1c 49 00 91 21 52 8b 34 81 21 52 44 91 25 5d 81 38 91 21 57 1c 81 25 5d 81 20 81 21 57 08 91 1c 49 81 48 81 1c 49 04 91 21 40 81 14 81 21 40 2c 91 25 52 84 24 81 25 52 1c 91 25 40 81 14 81 25 40 2c 91 26 52 85 5c 81 26 52 24 91 26 56 82 58 81 26 56 28 91 23 4e 82 58 81 23 4e 28 91 25 52 84 24 81 25 52 1c 91 25 40 81 14 81 25 40 2c 91 22 52 84 00 81 22 52 40 91 1e 40 81 14 81 1e 40 2c 91 23 52 85 54 81 23 52 2c 91 21 52 85 1c 81 21 52 64 91 1f 52 84 1c 81 1f 52 24 91 1f 40 81 14 81 1f 40 2c 91 1e 52 84 18 81 1e 52 28 91 1e 40 81 14 81 1e 40 2c 91 1f 52 84 1c 81 1f 52 24 91 21 40 81 14 81 21 40 2c 91 1e 52 84 08 81 1e 52 38 91 1e 40 81 14 81 1e 40 2c 91 1f 52 85 38 81 1f 52 48 91 1e 52 82 3c 81 1e 52 44 91 1a 52 82 3c 81 1a 52 44 91 22 52 85 50 81 22 52 30 91 23 52 82 54 81 23 52 2c 91 1e 52 82 54 81 1e 52 2c 91 1c 52 8b 5c 81 1c 52 24 91 24 52 85 3c 81 24 52 44 91 21 52 85 3c 81 21 52 44 91 23 52 8b 5c 81 23 52 24 91 20 52 8b 5c 81 20 52 81 ba 38 b1 79 7f 85 6c ff 2f 00 4d 54 72 6b 00 00 06 f6 00 ff 03 0a 53 4c 4f 57 53 54 52 49 4e 47 83 28 b2 00 00 08 c2 31 04 b2 07 7f 00 b2 0a 40 00 b2 0b 7f 04 b2 5b 64 00 b2 5d 00 94 48 92 41 20 0c 92 46 20 82 50 92 48 20 81 64 92 4a 20 0c 82 48 20 8f 7c 92 48 20 1c 82 4a 20 00 92 3f 20 82 5c 82 46 20 08 82 41 20 20 92 41 20 00 92 46 20 08 82 3f 20 08 92 52 20 0c 82 48 20 82 44 92 48 20 81 54 92 4a 20 10 82 48 20 84 48 82 41 20 0c 82 4a 20 00 82 46 20 8f 0c 82 52 20 81 bf 64 92 41 2a c7 74 92 46 29 24 82 41 2a 97 78 92 45 34 08 82 46 29 85 70 92 48 34 85 70 92 46 28 08 92 4a 34 14 82 45 34 04 82 48 34 85 60 92 4b 38 18 82 4a 34 82 74 92 4f 34 1c 82 4b 38 82 60 92 45 34 10 92 4d 34 08 82 4f 34 04 82 46 28 85 4c 92 4b 3c 04 82 4d 34 83 20 92 4a 34 04 82 4b 3c 83 00 92 46 2c 0c 82 45 34 85 50 82 4a 34 10 92 4a 34 82 04 92 4b 38 18 82 4a 34 81 4c 92 4d 34 30 82 4b 38 81 5c 92 51 30 08 92 45 32 0c 82 4d 34 04 82 46 2c 83 08 92 4f 28 3c 82 51 30 81 04 92 4d 2c 14 82 4f 28 81 1c 82 45 32 04 92 46 30 91 74 82 46 30 00 82 4d 2c 10 92 46 1e 0c 92 4a 28 85 48 92 48 30 18 82 4a 28 00 92 43 29 34 82 46 1e 85 54 92 4b 38 10 82 48 30 82 78 92 4a 38 14 82 4b 38 82 58 92 48 3c 04 92 41 28 1c 82 43 29 0c 82 4a 38 82 68 92 46 28 10 82 48 3c 82 54 82 46 28 10 92 46 1b 10 92 52 31 08 82 41 28 97 4c 82 52 31 08 82 46 1b 00 92 4d 38 84 5c 92 4e 3c 14 82 4d 38 82 58 92 4d 38 18 82 4e 3c 81 38 92 49 38 18 82 4d 38 82 5c 92 44 2c 14 82 49 38 8b 70 92 4d 34 20 82 44 2c 84 28 92 4e 34 1c 82 4d 34 82 50 92 4d 40 34 82 4e 34 81 20 92 49 3c 20 82 4d 40 88 3c 92 4b 38 24 82 49 3c 85 64 82 4b 38 14 92 57 30 14 92 4b 34 85 60 92 59 38 04 92 4d 34 0c 82 57 30 0c 82 4b 34 85 6c 82 4d 34 00 92 55 3a 14 82 59 38 0c 92 49 30 85 7c 92 54 37 0c 82 55 3a 85 40 92 52 3c 18 82 54 37 8c 0c 92 4d 2a 10 92 50 38 08 82 49 30 0c 82 52 3c 8b 34 82 50 38 10 92 50 37 00 92 5c 37 28 82 4d 2a c7 60 92 49 24 08 92 55 40 14 82 5c 37 00 82 50 37 85 60 92 57 40 14 82 55 40 85 78 92 50 40 28 82 57 40 8b 1c 82 50 40 14 92 50 34 38 82 49 24 10 92 5c 39 9d 58 92 5a 3c 04 92 4e 34 08 82 5c 39 34 82 50 34 82 4c 92 4d 2c 04 92 59 38 18 82 5a 3c 14 82 4e 34 8e 34 92 48 37 14 92 54 38 1c 82 59 38 04 82 4d 2c 85 6c 92 50 38 00 92 5c 40 08 82 54 38 14 82 48 37 91 58 92 55 3c 10 92 49 34 0c 82 50 38 0c 82 5c 40 85 5c 92 57 38 04 92 4b 3c 10 82 49 34 14 82 55 3c 85 50 92 4e 3c 00 92 5a 40 04 82 57 38 08 82 4b 3c 82 68 92 59 40 04 92 4d 40 0c 82 5a 40 18 82 4e 3c 82 78 92 57 49 08 92 4b 38 0c 82 4d 40 10 82 59 40 82 5c 92 5c 40 00 92 50 40 18 82 4b 38 00 82 57 49 82 68 92 55 4e 10 92 40 34 04 92 49 34 04 82 50 40 00 92 45 2c 04 82 5c 40 84 40 92 56 49 30 82 55 4e 70 92 42 3c 04 92 4a 49 0c 82 40 34 08 82 49 34 81 2c 92 55 49 1c 82 56 49 81 20 92 51 49 1c 82 55 49 81 20 92 4c 49 14 82 51 49 81 14 92 40 38 08 92 49 38 14 82 4a 49 00 82 42 3c 8b 40 82 45 2c 04 82 49 38 00 82 40 38 24 92 55 4b 04 82 4c 49 00 92 49 3c 00 92 40 3c 08 92 45 34 84 3c 92 56 48 30 82 55 4b 81 0c 92 42 3c 00 92 4a 49 04 82 40 3c 18 82 49 3c 81 18 92 55 49 14 82 56 48 81 3c 92 51 48 10 82 55 49 82 44 82 42 3c 04 82 45 34 18 82 4a 49 1c 92 5f 49 10 92 3e 38 00 92 47 40 08 82 51 48 00 92 35 38 82 68 92 45 49 0c 82 47 40 00 92 5d 49 10 82 5f 49 85 60 92 5c 52 04 92 44 40 04 82 5d 49 0c 82 45 49 82 68 92 3b 3c 0c 92 5a 49 18 92 42 40 04 82 44 40 10 82 5c 52 00 82 35 38 85 44 82 3e 38 0c 92 59 49 08 82 5a 49 00 92 3d 3c 10 92 41 40 04 82 42 40 85 34 82 3b 3c 10 82 3d 3c 04 92 39 34 0c 92 5d 49 0c 92 49 34 00 92 3d 3c 08 82 59 49 08 82 41 40 81 34 92 42 40 20 82 3d 3c 81 2c 92 44 4b 1c 82 42 40 82 60 92 45 48 2c 82 44 4b 82 58 92 47 49 10 82 45 48 82 64 92 3e 38 08 92 45 38 10 92 4a 34 04 82 47 49 08 82 49 34 3c 82 39 34 8b 38 82 3e 38 10 82 4a 34 04 82 45 38 64 82 5d 49 83 20 92 5a 30 04 92 4e 38 81 50 92 5b 40 10 92 4f 40 14 82 5a 30 14 82 4e 38 82 60 92 5f 3c 04 92 53 40 08 82 5b 40 04 82 4f 40 82 74 92 51 44 04 92 5d 3a 20 82 5f 3c 08 82 53 40 a3 30 92 4e 49 0c 92 5a 3c 14 82 5d 3a 00 82 51 44 82 54 92 4c 49 0c 92 58 40 04 82 4e 49 04 82 5a 3c 82 78 92 4a 40 08 82 4c 49 04 92 56 40 0c 82 58 40 82 68 92 49 3d 08 82 56 40 00 92 55 40 1c 82 4a 40 82 6c 92 5d 39 20 82 55 40 82 48 92 47 40 20 82 49 3d 82 60 92 45 40 20 82 47 40 85 48 92 49 40 54 82 45 40 82 4c 92 4a 49 28 82 49 40 81 28 92 45 38 20 82 4a 49 87 0c 92 4e 3c 28 82 45 38 85 50 92 5a 40 44 82 5d 39 81 04 92 4c 38 08 82 4e 3c 81 28 92 58 38 10 82 5a 40 82 6c 92 51 3d 1c 92 5d 3f 04 82 4c 38 28 82 58 38 8b 18 82 5d 3f 04 82 51 3d 44 92 5d 40 04 92 51 38 9d 60 92 5b 42 04 92 4f 38 08 82 5d 40 20 82 51 38 85 58 82 4f 38 04 92 4e 3c 04 92 5a 38 18 82 5b 42 85 34 82 4e 3c 28 92 4e 40 18 82 5a 38 08 92 5a 3c 81 7c 92 4f 40 08 92 5b 49 0c 82 4e 40 04 82 5a 3c 81 64 92 51 40 08 92 5d 41 1c 82 4f 40 0c 82 5b 49 99 20 82 51 40 30 82 5d 41 04 92 49 30 04 92 55 40 83 08 92 4a 30 14 82 49 30 81 10 92 56 48 2c 82 55 40 81 04 92 49 34 20 82 4a 30 00 92 55 40 24 82 56 48 8b 40 92 56 40 08 92 4a 30 18 82 49 34 18 82 55 40 85 40 82 56 40 14 92 4e 34 04 92 5a 30 10 82 4a 30 85 64 92 4a 34 08 92 56 30 14 82 4e 34 04 82 5a 30 ad 20 82 4a 34 30 82 56 30 88 1c 92 45 19 bc 08 92 3e 19 04 82 45 19 89 5c 82 3e 19 24 92 3d 1a 8e 04 82 3d 1a 00 92 56 1e aa 08 92 58 1e 20 82 56 1e 82 7c 92 51 1e 20 82 58 1e 82 4c 92 3e 15 04 92 32 15 08 92 42 14 04 92 39 12 00 92 40 15 96 3c 82 32 15 28 82 39 12 04 82 3e 15 0c 82 40 15 04 82 42 14 00 82 51 1e 93 18 b2 79 7f 85 58 ff 2f 00 4d 54 72 6b 00 00 23 73 00 ff 03 06 4d 45 4c 4f 44 59 83 3c b3 00 00 08 c3 1a 04 b3 07 61 00 b3 0a 40 00 b3 0b 7f 04 b3 5b 64 00 b3 5d 28 c4 34 93 3e 49 82 28 83 3e 49 50 93 3c 40 81 2c 83 3c 40 1c 93 3f 40 48 b3 01 08 24 b3 01 15 24 b3 01 1e 28 b3 01 22 20 b3 01 1e 24 b3 01 15 24 b3 01 0c 24 b3 01 01 24 83 3f 40 0c b3 01 00 08 93 3e 38 81 24 83 3e 38 18 93 3a 38 81 28 83 3a 38 1c 93 35 49 82 70 b3 01 01 81 24 b3 01 03 18 b3 01 04 18 b3 01 05 18 b3 01 06 28 b3 01 08 28 b3 01 0a 1c b3 01 0d 28 b3 01 0e 28 b3 01 10 28 b3 01 12 28 b3 01 14 81 10 b3 01 13 24 b3 01 12 38 b3 01 0f 2c b3 01 0d 24 b3 01 0b 24 b3 01 07 20 b3 01 01 24 b3 01 00 44 83 35 49 82 74 93 3e 40 20 b3 01 01 2c b3 01 06 28 b3 01 0a 24 b3 01 0c 24 b3 01 10 58 b3 01 0b 24 b3 01 01 14 83 3e 40 0c b3 01 00 20 93 3c 49 81 28 83 3c 49 1c 93 3f 40 5c b3 01 01 2c b3 01 04 28 b3 01 0a 24 b3 01 0f 20 b3 01 11 28 b3 01 0c 20 b3 01 01 10 83 3f 40 10 b3 01 00 1c 93 3e 49 81 30 83 3e 49 18 93 3a 40 82 6c 83 3a 40 18 93 3e 4b 58 b3 01 01 54 b3 01 02 1c b3 01 07 20 b3 01 0a 28 b3 01 0e 24 b3 01 12 20 b3 01 13 48 b3 01 11 1c b3 01 0f 20 b3 01 0b 20 b3 01 05 24 b3 01 01 4c b3 01 00 81 08 83 3e 4b 10 93 3c 49 81 1c b3 01 01 81 2c b3 01 04 28 b3 01 07 1c b3 01 08 18 b3 01 0b 28 b3 01 0d 24 b3 01 0f 18 b3 01 10 38 b3 01 0f 1c 83 3c 49 0c b3 01 09 28 b3 01 01 18 b3 01 00 54 93 3c 48 14 b3 01 01 34 b3 01 05 24 b3 01 0a 24 b3 01 0e 28 b3 01 11 30 b3 01 0d 18 b3 01 09 20 b3 01 01 24 b3 01 00 20 83 3c 48 1c 93 3b 3c 81 24 83 3b 3c 20 93 3e 4b 18 b3 01 01 81 1c b3 01 00 78 83 3e 4b 4c 93 3c 3c 1c b3 01 01 4c b3 01 05 28 b3 01 0b 24 b3 01 10 28 b3 01 13 2c b3 01 06 24 b3 01 00 04 83 3c 3c 58 93 39 38 81 10 83 39 38 2c 93 3c 40 1c b3 01 01 48 b3 01 05 48 b3 01 01 48 b3 01 00 4c 83 3c 40 3c 93 3a 3c 82 64 83 3a 3c 1c 93 39 45 82 64 83 39 45 28 93 3a 3c 30 b3 01 01 34 b3 01 02 2c b3 01 01 34 b3 01 00 81 10 83 3a 3c 28 93 37 49 30 b3 01 01 74 b3 01 03 40 b3 01 01 30 b3 01 00 30 83 37 49 30 93 3a 38 81 34 83 3a 38 14 93 3c 40 81 40 b3 01 01 2c b3 01 0c 28 b3 01 15 24 b3 01 1a 3c b3 01 19 1c b3 01 14 24 b3 01 0b 08 83 3c 40 20 b3 01 01 24 b3 01 00 44 93 3a 38 81 38 83 3a 38 0c 93 35 49 82 50 b3 01 01 81 04 b3 01 02 28 b3 01 04 20 b3 01 08 20 b3 01 09 18 b3 01 0c 18 b3 01 0d 20 b3 01 10 20 b3 01 13 28 b3 01 15 28 b3 01 17 1c b3 01 1a 24 b3 01 1b 40 b3 01 19 1c b3 01 10 24 b3 01 00 20 83 35 49 85 60 93 3e 49 82 28 83 3e 49 50 93 3c 40 81 2c 83 3c 40 1c 93 3f 40 34 b3 01 01 18 b3 01 0b 28 b3 01 17 24 b3 01 1f 20 b3 01 22 24 b3 01 1d 24 b3 01 13 28 b3 01 09 20 b3 01 01 20 83 3f 40 0c b3 01 00 08 93 3e 38 81 24 83 3e 38 18 93 3a 38 81 28 83 3a 38 1c 93 35 49 82 70 b3 01 01 81 24 b3 01 03 18 b3 01 04 18 b3 01 05 18 b3 01 06 28 b3 01 08 1c b3 01 09 1c b3 01 0c 1c b3 01 0d 18 b3 01 0e 28 b3 01 10 28 b3 01 12 28 b3 01 14 81 10 b3 01 13 24 b3 01 12 38 b3 01 10 20 b3 01 0e 1c b3 01 0c 24 b3 01 09 24 b3 01 01 34 b3 01 00 44 83 35 49 82 74 93 3e 40 20 b3 01 01 34 b3 01 07 24 b3 01 0b 30 b3 01 0d 1c b3 01 10 40 b3 01 0f 18 b3 01 09 20 b3 01 01 10 83 3e 40 0c b3 01 00 20 93 3c 49 81 28 83 3c 49 1c 93 3f 40 5c b3 01 01 2c b3 01 02 18 b3 01 09 24 b3 01 0d 24 b3 01 11 38 b3 01 0a 24 b3 01 01 08 83 3f 40 10 b3 01 00 1c 93 3e 49 81 30 83 3e 49 18 93 3a 40 82 6c 83 3a 40 18 93 3e 4b 58 b3 01 01 60 b3 01 05 28 b3 01 09 24 b3 01 0d 28 b3 01 11 28 b3 01 13 48 b3 01 12 1c b3 01 0f 20 b3 01 0a 2c b3 01 04 20 b3 01 01 44 b3 01 00 81 08 83 3e 4b 10 93 3c 49 81 1c b3 01 01 81 1c b3 01 02 1c b3 01 05 24 b3 01 07 20 b3 01 0a 18 b3 01 0b 1c b3 01 0d 24 b3 01 0f 18 b3 01 10 38 b3 01 0f 1c 83 3c 49 00 b3 01 0b 28 b3 01 01 24 b3 01 00 54 93 3c 48 14 b3 01 01 3c b3 01 05 24 b3 01 0b 24 b3 01 0f 20 b3 01 11 30 b3 01 0f 18 b3 01 07 24 b3 01 01 20 b3 01 00 20 83 3c 48 1c 93 3b 3c 81 24 83 3b 3c 20 93 3e 4b 18 b3 01 01 81 1c b3 01 00 78 83 3e 4b 4c 93 3c 3c 1c b3 01 01 54 b3 01 06 20 b3 01 0c 28 b3 01 10 24 b3 01 13 34 b3 01 04 1c b3 01 00 40 83 3c 3c 1c 93 39 38 81 10 83 39 38 2c 93 3c 40 1c b3 01 01 3c b3 01 04 18 b3 01 05 44 b3 01 01 40 b3 01 00 4c 83 3c 40 3c 93 3a 3c 84 54 83 3a 3c 81 34 93 39 45 34 b3 01 01 34 b3 01 02 2c b3 01 01 1c 83 39 45 10 93 3a 38 08 b3 01 00 81 18 83 3a 38 20 93 37 49 30 b3 01 01 68 b3 01 03 4c b3 01 01 30 b3 01 00 30 83 37 49 30 93 3a 38 81 34 83 3a 38 14 93 3c 40 81 40 b3 01 01 1c b3 01 02 18 b3 01 0d 24 b3 01 16 2c b3 01 1a 30 b3 01 18 24 b3 01 12 24 83 3c 40 00 b3 01 09 24 b3 01 01 20 b3 01 00 44 93 3a 38 81 38 83 3a 38 0c 93 3e 49 82 50 b3 01 01 81 04 b3 01 02 28 b3 01 04 18 b3 01 07 28 b3 01 0a 10 83 3e 49 18 b3 01 0c 1c b3 01 0f 20 b3 01 12 28 b3 01 15 34 b3 01 18 00 93 3e 40 1c b3 01 19 24 b3 01 1b 40 b3 01 18 20 b3 01 0b 08 83 3e 40 1c 93 3f 52 04 b3 01 00 82 44 83 3f 52 34 93 43 5b 82 54 83 43 5b 2c 93 41 52 81 3c b3 01 01 81 08 b3 01 02 24 b3 01 04 20 b3 01 07 30 b3 01 09 28 b3 01 0b 1c b3 01 0c 18 b3 01 0d 18 b3 01 0e 24 b3 01 10 18 b3 01 11 28 b3 01 13 28 b3 01 15 1c b3 01 16 58 b3 01 17 24 b3 01 18 1c b3 01 19 2c b3 01 1a 3c b3 01 1b 20 b3 01 1c 20 b3 01 1d 1c b3 01 1e 28 b3 01 1f 20 b3 01 20 1c b3 01 21 81 18 b3 01 20 2c b3 01 1f 1c b3 01 1e 1c b3 01 1d 2c b3 01 1b 18 b3 01 1a 20 b3 01 17 30 b3 01 15 1c b3 01 12 20 b3 01 0f 24 b3 01 0a 28 b3 01 06 20 b3 01 01 50 b3 01 00 30 83 41 52 81 6c 93 3e 3c 81 34 83 3e 3c 0c 93 3f 54 82 5c 83 3f 54 28 93 43 57 82 58 83 43 57 28 93 41 49 10 b3 01 01 40 b3 01 09 20 b3 01 11 28 b3 01 17 20 b3 01 1b 1c b3 01 1c 24 b3 01 1a 1c b3 01 15 24 b3 01 0a 24 b3 01 01 14 83 41 49 0c 93 3c 49 00 b3 01 00 81 20 83 3c 49 24 93 3f 5a 5c b3 01 01 28 b3 01 05 24 b3 01 0b 24 b3 01 11 28 b3 01 15 54 b3 01 13 2c b3 01 0f 1c b3 01 0b 24 b3 01 03 18 b3 01 01 38 b3 01 00 34 83 3f 5a 10 93 3e 49 81 1c 83 3e 49 24 93 3e 52 5c b3 01 01 54 b3 01 02 18 b3 01 06 30 b3 01 09 18 b3 01 0b 28 b3 01 0e 20 b3 01 12 28 b3 01 14 20 b3 01 16 18 b3 01 17 18 b3 01 18 38 b3 01 17 20 b3 01 12 18 b3 01 00 04 83 3e 52 82 6c 93 3e 49 81 5c 83 3e 49 30 93 3f 49 81 60 83 3f 49 28 93 41 49 81 28 83 41 49 48 93 45 49 20 b3 01 01 18 b3 01 03 20 b3 01 0e 24 b3 01 17 24 b3 01 20 28 b3 01 25 54 b3 01 1d 24 b3 01 13 08 83 45 49 1c b3 01 01 18 93 43 49 04 b3 01 00 82 50 83 43 49 30 93 41 40 04 b3 01 01 34 b3 01 0a 24 b3 01 13 24 b3 01 1d 24 b3 01 27 28 b3 01 2d 20 b3 01 35 28 b3 01 39 20 b3 01 3c 1c b3 01 3d 1c b3 01 38 20 83 41 40 00 b3 01 27 28 b3 01 10 20 b3 01 01 24 b3 01 00 54 93 3a 40 81 40 83 3a 40 04 93 45 49 24 b3 01 07 1c b3 01 17 24 b3 01 22 24 b3 01 2a 58 b3 01 20 24 b3 01 11 24 b3 01 01 0c 83 45 49 14 b3 01 00 2c 93 46 40 81 30 83 46 40 1c 93 41 49 14 b3 01 01 20 b3 01 03 1c b3 01 0c 28 b3 01 12 20 b3 01 17 2c b3 01 1d 20 b3 01 22 24 b3 01 26 28 b3 01 29 18 b3 01 2a 1c b3 01 2b 1c b3 01 2c 38 b3 01 23 24 b3 01 10 28 b3 01 00 24 83 41 49 81 4c 93 3a 34 81 44 83 3a 34 00 93 3e 4b 2c b3 01 01 20 b3 01 03 18 b3 01 09 18 b3 01 0b 24 b3 01 0d 44 b3 01 08 24 b3 01 01 3c b3 01 00 30 83 3e 4b 08 93 3c 3c 81 08 83 3c 3c 34 93 3a 49 48 b3 01 01 20 b3 01 02 18 b3 01 08 24 b3 01 0e 24 b3 01 14 28 b3 01 16 20 b3 01 18 44 b3 01 17 1c b3 01 14 24 b3 01 0f 20 b3 01 08 24 b3 01 01 40 b3 01 00 2c 93 37 38 18 83 3a 49 81 18 83 37 38 10 93 3a 45 81 40 83 3a 45 00 93 3e 4b 54 b3 01 01 34 b3 01 0a 28 b3 01 11 20 b3 01 16 28 b3 01 19 44 b3 01 15 28 b3 01 0e 1c 93 3c 38 04 83 3e 4b 04 b3 01 01 28 b3 01 00 64 83 3c 38 2c 93 3c 34 04 93 3e 49 64 b3 01 01 3c 83 3e 49 00 b3 01 02 18 b3 01 08 08 93 3f 57 1c b3 01 0d 24 b3 01 12 28 b3 01 15 24 b3 01 19 2c b3 01 1b 20 b3 01 1d 48 b3 01 1b 20 b3 01 14 24 b3 01 00 14 83 3f 57 08 93 43 52 14 83 3c 34 82 38 83 43 52 2c 93 41 49 78 b3 01 01 81 08 b3 01 03 1c b3 01 05 20 b3 01 07 28 b3 01 09 18 b3 01 0a 20 b3 01 0b 1c b3 01 0c 18 b3 01 0d 30 b3 01 0f 18 b3 01 10 1c b3 01 11 7c b3 01 12 40 b3 01 13 4c b3 01 14 81 50 b3 01 12 18 b3 01 11 20 b3 01 0f 20 b3 01 0e 24 b3 01 0d 28 b3 01 0a 18 b3 01 09 20 b3 01 03 1c b3 01 01 64 b3 01 00 81 50 83 41 49 84 04 93 3e 49 81 28 83 3e 49 20 93 3f 52 82 64 83 3f 52 20 93 43 52 82 48 83 43 52 2c 93 41 49 20 b3 01 01 28 b3 01 09 24 b3 01 10 24 b3 01 16 18 b3 01 18 28 b3 01 1a 30 b3 01 18 24 b3 01 11 20 b3 01 01 2c b3 01 00 04 83 41 49 10 93 3c 42 81 14 83 3c 42 2c 93 3f 49 60 b3 01 01 2c b3 01 06 24 b3 01 0d 24 b3 01 14 18 b3 01 18 20 b3 01 1f 18 b3 01 20 44 b3 01 1c 20 b3 01 15 24 b3 01 0b 24 b3 01 01 24 b3 01 00 48 93 3e 40 04 83 3f 49 81 28 83 3e 40 1c 93 3e 42 24 b3 01 01 58 b3 01 07 28 b3 01 0b 24 b3 01 0f 20 b3 01 13 18 b3 01 14 1c b3 01 17 18 b3 01 19 28 b3 01 1b 1c b3 01 1f 24 b3 01 23 28 b3 01 26 34 b3 01 21 24 b3 01 09 24 b3 01 00 14 83 3e 42 82 6c 93 3e 49 81 58 83 3e 49 2c 93 3f 49 81 50 83 3f 49 2c 93 41 49 81 48 83 41 49 2c 93 45 52 0c b3 01 01 24 b3 01 0c 20 b3 01 13 28 b3 01 1a 24 b3 01 1c 28 b3 01 1b 1c b3 01 15 28 b3 01 0c 24 b3 01 01 30 b3 01 00 08 83 45 52 1c 93 43 40 81 28 83 43 40 18 93 41 49 38 b3 01 01 34 b3 01 03 1c b3 01 09 24 b3 01 0f 28 b3 01 13 20 b3 01 17 18 b3 01 19 1c b3 01 1d 1c b3 01 1e 28 b3 01 1f 44 b3 01 1e 20 b3 01 14 20 b3 01 08 28 b3 01 00 24 83 41 49 81 20 93 3a 34 81 5c 83 3a 34 08 93 45 40 34 b3 01 01 30 b3 01 01 1c b3 01 00 2c 83 45 40 1c 93 46 40 6c b3 01 01 48 b3 01 04 28 b3 01 08 24 b3 01 01 24 b3 01 00 30 83 46 40 30 93 41 40 68 b3 01 01 44 b3 01 06 28 b3 01 09 20 b3 01 0d 2c b3 01 0f 1c b3 01 12 28 b3 01 16 1c b3 01 17 18 b3 01 1a 30 b3 01 1c 1c b3 01 1e 1c b3 01 17 24 b3 01 00 28 83 41 40 81 34 93 3a 34 81 40 93 3e 49 04 83 3a 34 34 b3 01 01 1c b3 01 03 20 b3 01 0d 24 b3 01 12 18 b3 01 13 34 b3 01 12 1c b3 01 09 24 b3 01 01 14 83 3e 49 08 b3 01 00 34 93 3c 40 81 24 83 3c 40 20 93 3a 3c 64 b3 01 01 24 b3 01 04 24 b3 01 0a 2c b3 01 0f 24 b3 01 14 1c b3 01 16 28 b3 01 18 81 1c b3 01 17 18 b3 01 0e 20 b3 01 01 04 83 3a 3c 28 93 3a 34 00 b3 01 00 81 20 83 3a 34 24 93 3f 49 68 b3 01 01 28 b3 01 03 24 b3 01 09 20 b3 01 0e 18 b3 01 10 1c b3 01 15 28 b3 01 18 18 b3 01 19 1c b3 01 1a 5c b3 01 17 24 b3 01 13 20 b3 01 08 1c 83 3f 49 08 b3 01 01 1c 93 3e 38 08 b3 01 00 81 1c 83 3e 38 1c 93 3c 40 40 b3 01 01 2c b3 01 09 24 b3 01 0f 24 b3 01 14 24 b3 01 18 24 b3 01 1a 20 b3 01 1b 54 b3 01 19 18 b3 01 16 28 b3 01 10 24 b3 01 09 24 b3 01 01 30 b3 01 00 08 83 3c 40 0c 93 3a 38 81 20 83 3a 38 20 93 3a 40 48 b3 01 01 54 b3 01 03 24 b3 01 07 24 b3 01 09 28 b3 01 0b 24 b3 01 0d 18 b3 01 0e 20 b3 01 10 28 b3 01 12 18 b3 01 13 18 b3 01 14 81 0c b3 01 12 20 b3 01 0f 34 b3 01 0d 20 b3 01 0c 1c b3 01 0b 24 b3 01 09 18 b3 01 08 1c b3 01 05 28 b3 01 01 3c b3 01 00 50 83 3a 40 91 60 93 41 49 82 28 83 41 49 50 93 3f 40 81 2c 83 3f 40 1c 93 42 40 48 b3 01 05 20 b3 01 14 20 b3 01 1e 28 b3 01 22 34 b3 01 1c 24 b3 01 12 24 b3 01 08 24 b3 01 01 18 83 42 40 0c b3 01 00 08 93 41 38 81 24 83 41 38 18 93 3d 38 81 28 83 3d 38 1c 93 38 49 82 70 b3 01 01 81 24 b3 01 03 18 b3 01 04 18 b3 01 05 18 b3 01 06 28 b3 01 08 1c b3 01 0a 1c b3 01 0b 1c b3 01 0d 18 b3 01 0e 28 b3 01 10 28 b3 01 12 28 b3 01 14 81 10 b3 01 13 24 b3 01 12 38 b3 01 10 20 b3 01 0d 30 b3 01 0b 18 b3 01 08 24 b3 01 01 2c b3 01 00 44 83 38 49 82 74 93 41 40 20 b3 01 01 3c b3 01 08 28 b3 01 0b 24 b3 01 0d 1c b3 01 10 48 b3 01 0c 28 b3 01 03 18 83 41 40 0c b3 01 00 20 93 3f 49 81 28 83 3f 49 1c 93 42 40 5c b3 01 01 2c b3 01 04 20 b3 01 09 24 b3 01 0e 28 b3 01 11 20 b3 01 0e 24 b3 01 01 14 83 42 40 10 b3 01 00 1c 93 41 49 81 30 83 41 49 18 93 3d 40 82 6c 83 3d 40 18 93 41 4b 58 b3 01 01 68 b3 01 06 28 b3 01 0a 28 b3 01 0d 1c b3 01 11 28 b3 01 13 58 b3 01 10 24 b3 01 0c 28 b3 01 08 1c b3 01 01 54 b3 01 00 81 08 83 41 4b 10 93 3f 49 81 1c b3 01 01 81 1c b3 01 02 1c b3 01 05 1c b3 01 06 1c b3 01 09 24 b3 01 0c 1c b3 01 0d 24 b3 01 0f 18 b3 01 10 38 b3 01 0f 1c 83 3f 49 0c b3 01 0b 20 b3 01 01 20 b3 01 00 54 93 3f 48 14 b3 01 01 34 b3 01 03 1c b3 01 0a 24 b3 01 0e 30 b3 01 11 3c b3 01 0c 24 b3 01 01 2c b3 01 00 20 83 3f 48 1c 93 3e 3c 81 24 83 3e 3c 20 93 41 4b 18 b3 01 01 81 1c b3 01 00 81 48 83 41 4b 04 93 3f 40 14 b3 01 01 44 b3 01 04 28 b3 01 0a 20 b3 01 0f 0c 83 3f 40 0c 93 3c 37 10 b3 01 13 34 b3 01 06 28 b3 01 00 54 83 3c 37 00 93 3f 42 83 00 83 3f 42 00 93 3d 38 81 6c b3 01 01 30 b3 01 04 18 b3 01 07 20 b3 01 0d 24 b3 01 13 20 b3 01 19 24 b3 01 1e 4c b3 01 18 24 b3 01 03 20 b3 01 00 10 83 3d 38 82 6c 93 3c 45 34 b3 01 01 34 b3 01 02 2c b3 01 01 1c 83 3c 45 10 93 3d 38 08 b3 01 00 81 18 83 3d 38 20 93 3a 49 30 b3 01 01 74 b3 01 03 40 b3 01 01 30 b3 01 00 30 83 3a 49 30 93 3d 38 81 34 83 3d 38 14 93 3f 40 81 40 b3 01 01 1c b3 01 03 1c b3 01 0f 24 b3 01 16 28 b3 01 1a 30 b3 01 19 1c b3 01 15 1c b3 01 0c 24 b3 01 01 30 b3 01 00 20 83 3f 40 24 93 41 38 81 24 83 41 38 1c 93 41 49 82 54 b3 01 01 81 04 b3 01 02 28 b3 01 04 20 b3 01 07 20 b3 01 0a 0c 83 41 49 1c b3 01 0d 34 b3 01 11 24 b3 01 14 18 b3 01 15 28 b3 01 17 00 93 41 40 1c b3 01 19 24 b3 01 1b 40 b3 01 1a 18 b3 01 13 10 83 41 40 10 b3 01 00 0c 93 42 52 82 48 83 42 52 34 93 46 5b 82 54 83 46 5b 2c 93 44 52 81 3c b3 01 01 81 08 b3 01 02 24 b3 01 05 2c b3 01 07 24 b3 01 09 28 b3 01 0b 1c b3 01 0c 18 b3 01 0d 2c b3 01 10 28 b3 01 11 28 b3 01 13 28 b3 01 15 1c b3 01 16 58 b3 01 17 24 b3 01 18 1c b3 01 19 2c b3 01 1a 3c b3 01 1b 20 b3 01 1c 20 b3 01 1d 1c b3 01 1e 28 b3 01 1f 20 b3 01 20 1c b3 01 21 81 18 b3 01 20 2c b3 01 1f 1c b3 01 1e 1c b3 01 1d 2c b3 01 1b 18 b3 01 19 2c b3 01 17 24 b3 01 15 1c b3 01 12 28 b3 01 0e 24 b3 01 09 24 b3 01 05 20 b3 01 01 4c b3 01 00 30 83 44 52 81 6c 93 41 3c 81 34 83 41 3c 0c 93 42 54 82 5c 83 42 54 28 93 46 57 82 58 83 46 57 28 93 44 49 10 b3 01 01 40 b3 01 0a 24 b3 01 13 2c b3 01 18 24 b3 01 1b 28 b3 01 1b 1c b3 01 16 24 b3 01 0d 24 b3 01 01 20 83 44 49 0c 93 3f 49 00 b3 01 00 81 20 83 3f 49 24 93 42 5a 5c b3 01 01 2c b3 01 06 24 b3 01 0d 24 b3 01 11 24 b3 01 15 54 b3 01 14 20 b3 01 11 1c b3 01 0c 24 b3 01 07 24 b3 01 01 38 b3 01 00 34 83 42 5a 10 93 41 49 81 1c 83 41 49 24 93 41 52 5c b3 01 01 60 b3 01 04 28 b3 01 08 20 b3 01 0b 28 b3 01 0e 20 b3 01 11 28 b3 01 14 2c b3 01 16 18 b3 01 17 18 b3 01 18 40 b3 01 15 24 b3 01 01 10 83 41 52 08 b3 01 00 82 64 93 41 49 81 5c 83 41 49 30 93 42 49 81 60 83 42 49 28 93 44 49 81 28 83 44 49 48 93 48 49 20 b3 01 01 18 b3 01 06 24 b3 01 10 24 b3 01 19 24 b3 01 21 24 b3 01 25 40 b3 01 24 20 b3 01 1c 20 83 48 49 00 b3 01 0d 20 b3 01 01 14 93 46 49 04 b3 01 00 82 50 83 46 49 30 93 44 40 04 b3 01 01 28 b3 01 06 24 b3 01 10 28 b3 01 1a 24 b3 01 24 24 b3 01 2b 20 b3 01 32 24 b3 01 37 24 b3 01 3b 28 b3 01 3d 24 b3 01 37 18 83 44 40 08 b3 01 22 24 b3 01 0e 24 b3 01 01 1c b3 01 00 54 93 3d 40 81 40 83 3d 40 04 93 48 49 24 b3 01 0b 24 b3 01 1a 24 b3 01 24 20 b3 01 2a 44 b3 01 28 18 b3 01 1e 24 b3 01 0f 24 b3 01 01 04 83 48 49 14 b3 01 00 2c 93 49 40 81 30 83 49 40 1c 93 44 49 14 b3 01 01 20 b3 01 05 24 b3 01 0c 28 b3 01 12 20 b3 01 17 24 b3 01 1d 28 b3 01 23 28 b3 01 26 1c b3 01 29 18 b3 01 2a 1c b3 01 2b 1c b3 01 2c 30 b3 01 28 24 b3 01 18 20 b3 01 00 34 83 44 49 81 4c 93 3d 34 81 44 83 3d 34 00 93 41 4b 2c b3 01 01 20 b3 01 03 24 b3 01 09 20 b3 01 0d 44 b3 01 0c 1c b3 01 08 1c b3 01 01 38 b3 01 00 30 83 41 4b 08 93 3f 3c 81 20 83 3f 3c 1c 93 3d 49 48 b3 01 01 2c b3 01 07 24 b3 01 0d 28 b3 01 12 20 b3 01 16 30 b3 01 18 44 b3 01 17 1c b3 01 14 24 b3 01 0d 24 b3 01 07 24 b3 01 01 3c b3 01 00 2c 93 41 38 18 83 3d 49 81 18 83 41 38 10 93 42 45 82 14 b3 01 01 2c b3 01 08 24 b3 01 0d 20 b3 01 15 24 b3 01 18 18 b3 01 19 44 b3 01 14 24 83 42 45 00 b3 01 0c 18 93 41 38 0c b3 01 01 24 b3 01 00 81 78 b3 01 01 3c b3 01 03 0c 83 41 38 14 93 42 57 00 b3 01 0a 24 b3 01 0e 18 b3 01 11 20 b3 01 15 1c b3 01 16 20 b3 01 19 20 b3 01 1b 20 b3 01 1d 48 b3 01 1a 24 b3 01 10 24 b3 01 00 10 83 42 57 08 93 46 52 82 4c 83 46 52 2c 93 44 49 78 b3 01 01 78 b3 01 02 24 b3 01 04 18 b3 01 07 38 b3 01 09 18 b3 01 0a 20 b3 01 0b 1c b3 01 0c 18 b3 01 0d 30 b3 01 0f 18 b3 01 10 1c b3 01 11 7c b3 01 12 40 b3 01 13 4c b3 01 14 81 50 b3 01 13 18 b3 01 10 20 b3 01 0f 20 b3 01 0e 38 b3 01 0c 20 b3 01 0a 18 b3 01 07 28 b3 01 01 6c b3 01 00 81 50 83 44 49 84 04 93 41 49 81 28 83 41 49 20 93 42 52 82 64 83 42 52 20 93 46 52 82 48 83 46 52 2c 93 44 49 20 b3 01 01 2c b3 01 0b 18 b3 01 0d 20 b3 01 15 24 b3 01 18 28 b3 01 1a 30 b3 01 17 28 b3 01 0d 20 b3 01 01 28 b3 01 00 04 83 44 49 10 93 3f 42 81 14 83 3f 42 2c 93 42 49 60 b3 01 01 30 b3 01 08 24 b3 01 0e 28 b3 01 14 24 b3 01 1d 24 b3 01 20 30 b3 01 1f 1c b3 01 1b 20 b3 01 14 20 b3 01 09 28 b3 01 01 1c b3 01 00 48 93 41 40 04 83 42 49 81 28 83 41 40 1c 93 41 42 24 b3 01 01 4c b3 01 05 18 b3 01 07 1c b3 01 0b 24 b3 01 10 18 b3 01 12 20 b3 01 15 28 b3 01 17 24 b3 01 1a 24 b3 01 1e 24 b3 01 22 24 b3 01 26 3c b3 01 24 1c b3 01 15 24 b3 01 00 20 83 41 42 82 6c 93 41 49 81 58 83 41 49 2c 93 42 49 81 50 83 42 49 2c 93 44 49 81 48 83 44 49 2c 93 48 52 0c b3 01 01 18 b3 01 09 20 b3 01 11 28 b3 01 18 24 b3 01 1c 44 b3 01 16 18 b3 01 12 20 b3 01 0b 24 b3 01 01 2c b3 01 00 08 83 48 52 1c 93 46 40 81 28 83 46 40 18 93 44 49 38 b3 01 01 44 b3 01 08 24 b3 01 0d 28 b3 01 12 20 b3 01 16 24 b3 01 1a 1c b3 01 1b 1c b3 01 1e 28 b3 01 1f 58 b3 01 18 20 b3 01 0a 24 b3 01 00 34 83 44 49 81 58 93 3d 3c 81 30 83 3d 3c 08 93 48 52 28 b3 01 01 30 b3 01 01 1c b3 01 00 81 34 b3 01 01 2c 83 48 52 1c b3 01 02 0c 93 49 49 0c b3 01 08 38 b3 01 01 20 b3 01 00 64 83 49 49 00 93 44 40 64 b3 01 01 38 b3 01 04 28 b3 01 09 24 b3 01 0c 18 b3 01 0d 1c b3 01 10 24 b3 01 13 20 b3 01 16 1c b3 01 17 24 b3 01 1a 24 b3 01 1c 1c b3 01 1e 24 b3 01 12 28 b3 01 00 64 83 44 40 82 20 93 41 49 38 b3 01 08 18 b3 01 0d 20 b3 01 14 28 b3 01 1a 44 b3 01 0f 24 b3 01 01 1c b3 01 00 44 83 41 49 2c 93 46 40 44 b3 01 04 1c b3 01 13 24 b3 01 1c 34 b3 01 16 28 b3 01 03 24 b3 01 00 50 83 46 40 2c 93 3d 3c 00 b3 01 01 20 b3 01 06 28 b3 01 10 18 b3 01 13 1c b3 01 1e 24 b3 01 26 24 b3 01 2b 38 b3 01 29 20 b3 01 1e 28 b3 01 0e 24 b3 01 01 08 83 3d 3c 0c 93 3f 40 08 b3 01 00 81 1c 83 3f 40 1c 93 41 49 81 14 83 41 49 30 93 42 49 28 b3 01 01 24 b3 01 0b 28 b3 01 15 20 b3 01 1a 28 b3 01 1d 38 b3 01 18 20 b3 01 0b 20 b3 01 01 1c 83 42 49 00 b3 01 00 24 93 41 49 48 b3 01 01 2c b3 01 0b 24 b3 01 15 1c b3 01 16 1c b3 01 1a 20 b3 01 1b 38 b3 01 14 24 b3 01 01 24 b3 01 00 14 83 41 49 10 93 3f 49 40 b3 01 01 30 b3 01 09 24 b3 01 14 20 b3 01 1d 24 b3 01 21 34 b3 01 20 18 b3 01 17 24 b3 01 01 1c b3 01 00 14 83 3f 49 04 93 3d 49 82 54 83 3d 49 28 93 3d 52 70 b3 01 01 48 b3 01 03 1c b3 01 08 24 b3 01 0b 2c b3 01 0d 28 b3 01 0f 18 b3 01 11 28 b3 01 13 1c b3 01 14 24 b3 01 16 18 b3 01 1a 28 b3 01 1f 20 b3 01 22 28 b3 01 26 20 b3 01 29 28 b3 01 2a 34 b3 01 1e 24 b3 01 00 18 83 3d 52 cf 0c b3 01 01 81 04 b3 01 02 28 b3 01 04 20 b3 01 07 20 b3 01 0a 28 b3 01 0d 34 b3 01 11 24 b3 01 14 18 b3 01 15 28 b3 01 17 00 93 42 40 1c b3 01 19 24 b3 01 1b 40 b3 01 1a 18 b3 01 13 10 83 42 40 10 b3 01 00 0c 93 43 52 82 48 83 43 52 34 93 47 5b 82 54 83 47 5b 2c 93 45 52 81 3c b3 01 01 81 08 b3 01 02 24 b3 01 05 2c b3 01 07 24 b3 01 09 28 b3 01 0b 1c b3 01 0c 18 b3 01 0d 2c b3 01 10 28 b3 01 11 28 b3 01 13 28 b3 01 15 1c b3 01 16 58 b3 01 17 24 b3 01 18 1c b3 01 19 2c b3 01 1a 3c b3 01 1b 20 b3 01 1c 20 b3 01 1d 1c b3 01 1e 28 b3 01 1f 20 b3 01 20 1c b3 01 21 81 18 b3 01 20 2c b3 01 1f 1c b3 01 1e 1c b3 01 1d 2c b3 01 1b 18 b3 01 19 2c b3 01 17 24 b3 01 15 1c b3 01 12 28 b3 01 0e 24 b3 01 09 24 b3 01 05 20 b3 01 01 4c b3 01 00 30 83 45 52 81 6c 93 42 3c 81 34 83 42 3c 0c 93 43 54 82 5c 83 43 54 28 93 47 57 82 58 83 47 57 28 93 45 49 10 b3 01 01 40 b3 01 0a 24 b3 01 13 2c b3 01 18 24 b3 01 1b 28 b3 01 1b 1c b3 01 16 24 b3 01 0d 24 b3 01 01 20 83 45 49 0c 93 40 49 00 b3 01 00 81 20 83 40 49 24 93 43 5a 5c b3 01 01 2c b3 01 06 24 b3 01 0d 24 b3 01 11 24 b3 01 15 54 b3 01 14 20 b3 01 11 1c b3 01 0c 24 b3 01 07 24 b3 01 01 38 b3 01 00 34 83 43 5a 10 93 42 49 81 1c 83 42 49 24 93 42 52 5c b3 01 01 60 b3 01 04 28 b3 01 08 20 b3 01 0b 28 b3 01 0e 20 b3 01 11 28 b3 01 14 2c b3 01 16 18 b3 01 17 18 b3 01 18 40 b3 01 15 24 b3 01 01 10 83 42 52 08 b3 01 00 82 64 93 42 49 81 5c 83 42 49 30 93 43 49 81 60 83 43 49 28 93 45 49 81 28 83 45 49 48 93 49 49 20 b3 01 01 18 b3 01 06 24 b3 01 10 24 b3 01 19 24 b3 01 21 24 b3 01 25 40 b3 01 24 20 b3 01 1c 20 83 49 49 00 b3 01 0d 20 b3 01 01 14 93 47 49 04 b3 01 00 82 50 83 47 49 30 93 45 40 04 b3 01 01 28 b3 01 06 24 b3 01 10 28 b3 01 1a 24 b3 01 24 24 b3 01 2b 20 b3 01 32 24 b3 01 37 24 b3 01 3b 28 b3 01 3d 24 b3 01 37 18 83 45 40 08 b3 01 22 24 b3 01 0e 24 b3 01 01 1c b3 01 00 54 93 3e 40 81 40 83 3e 40 04 93 49 49 24 b3 01 0b 24 b3 01 1a 24 b3 01 24 20 b3 01 2a 44 b3 01 28 18 b3 01 1e 24 b3 01 0f 24 b3 01 01 04 83 49 49 14 b3 01 00 2c 93 4a 40 81 30 83 4a 40 1c 93 45 49 14 b3 01 01 20 b3 01 05 24 b3 01 0c 28 b3 01 12 20 b3 01 17 24 b3 01 1d 28 b3 01 23 28 b3 01 26 1c b3 01 29 18 b3 01 2a 1c b3 01 2b 1c b3 01 2c 30 b3 01 28 24 b3 01 18 20 b3 01 00 34 83 45 49 81 4c 93 49 40 81 34 83 49 40 10 93 4a 52 38 b3 01 01 24 b3 01 05 24 b3 01 0b 24 b3 01 11 24 b3 01 16 24 b3 01 1b 28 b3 01 1e 40 b3 01 1a 1c b3 01 18 1c b3 01 14 24 b3 01 0e 24 b3 01 09 18 b3 01 07 20 83 4a 52 00 b3 01 01 2c 93 4a 40 24 b3 01 00 81 1c 93 49 38 08 83 4a 40 3c 93 47 40 10 83 49 38 40 93 45 49 14 83 47 40 81 34 b3 01 01 2c b3 01 08 28 b3 01 0f 20 b3 01 18 24 b3 01 1e 24 b3 01 1c 08 83 45 49 1c b3 01 10 0c 93 45 49 18 b3 01 01 20 b3 01 00 6c 83 45 49 1c 93 45 5b 82 0c b3 01 01 38 b3 01 02 1c b3 01 0e 24 b3 01 19 28 b3 01 1f 2c b3 01 1f 1c b3 01 10 10 83 45 5b 14 b3 01 00 28 93 42 38 64 b3 01 01 2c 83 42 38 10 b3 01 03 20 93 43 57 00 b3 01 0a 24 b3 01 0e 18 b3 01 11 20 b3 01 15 1c b3 01 16 20 b3 01 19 20 b3 01 1b 20 b3 01 1d 48 b3 01 1a 24 b3 01 10 24 b3 01 00 10 83 43 57 08 93 47 52 82 4c 83 47 52 2c 93 45 49 78 b3 01 01 78 b3 01 02 24 b3 01 04 18 b3 01 07 38 b3 01 09 18 b3 01 0a 20 b3 01 0b 1c b3 01 0c 18 b3 01 0d 30 b3 01 0f 18 b3 01 10 1c b3 01 11 7c b3 01 12 40 b3 01 13 4c b3 01 14 81 50 b3 01 13 18 b3 01 10 20 b3 01 0f 20 b3 01 0e 38 b3 01 0c 20 b3 01 0a 18 b3 01 07 28 b3 01 01 6c b3 01 00 81 50 83 45 49 84 04 93 42 49 81 28 83 42 49 20 93 43 52 82 64 83 43 52 20 93 47 52 82 48 83 47 52 2c 93 45 49 20 b3 01 01 2c b3 01 0b 18 b3 01 0d 20 b3 01 15 24 b3 01 18 28 b3 01 1a 30 b3 01 17 28 b3 01 0d 20 b3 01 01 28 b3 01 00 04 83 45 49 10 93 40 42 81 14 83 40 42 2c 93 43 49 60 b3 01 01 30 b3 01 08 24 b3 01 0e 28 b3 01 14 24 b3 01 1d 24 b3 01 20 30 b3 01 1f 1c b3 01 1b 20 b3 01 14 20 b3 01 09 28 b3 01 01 1c b3 01 00 48 93 42 40 04 83 43 49 81 28 83 42 40 1c 93 42 42 24 b3 01 01 4c b3 01 05 18 b3 01 07 1c b3 01 0b 24 b3 01 10 18 b3 01 12 20 b3 01 15 28 b3 01 17 24 b3 01 1a 24 b3 01 1e 24 b3 01 22 24 b3 01 26 3c b3 01 24 1c b3 01 15 24 b3 01 00 20 83 42 42 82 6c 93 42 49 81 58 83 42 49 2c 93 43 49 81 50 83 43 49 2c 93 45 49 81 48 83 45 49 2c 93 49 52 0c b3 01 01 18 b3 01 09 20 b3 01 11 28 b3 01 18 24 b3 01 1c 44 b3 01 16 18 b3 01 12 20 b3 01 0b 24 b3 01 01 2c b3 01 00 08 83 49 52 1c 93 47 40 81 28 83 47 40 18 93 45 49 38 b3 01 01 44 b3 01 08 24 b3 01 0d 28 b3 01 12 20 b3 01 16 24 b3 01 1a 1c b3 01 1b 1c b3 01 1e 28 b3 01 1f 58 b3 01 18 20 b3 01 0a 24 b3 01 00 34 83 45 49 81 58 93 3e 3c 81 30 83 3e 3c 08 93 49 52 28 b3 01 01 30 b3 01 01 1c b3 01 00 81 34 b3 01 01 2c 83 49 52 1c b3 01 02 0c 93 4a 49 0c b3 01 08 38 b3 01 01 20 b3 01 00 64 83 4a 49 00 93 45 40 64 b3 01 01 38 b3 01 04 28 b3 01 09 24 b3 01 0c 18 b3 01 0d 1c b3 01 10 24 b3 01 13 20 b3 01 16 1c b3 01 17 24 b3 01 1a 24 b3 01 1c 1c b3 01 1e 24 b3 01 12 28 b3 01 00 64 83 45 40 82 20 93 49 49 38 b3 01 08 18 b3 01 0d 20 b3 01 14 28 b3 01 1a 44 b3 01 0f 24 b3 01 01 1c b3 01 00 44 83 49 49 2c 93 47 40 44 b3 01 04 1c b3 01 13 24 b3 01 1c 34 b3 01 16 28 b3 01 03 24 b3 01 00 50 83 47 40 2c 93 45 3c 00 b3 01 01 20 b3 01 06 28 b3 01 10 18 b3 01 13 1c b3 01 1e 24 b3 01 26 24 b3 01 2b 38 b3 01 29 20 b3 01 1e 28 b3 01 0e 24 b3 01 01 08 83 45 3c 14 b3 01 00 81 38 93 3e 49 81 2c b3 01 06 1c b3 01 13 08 93 42 49 10 83 3e 49 0c b3 01 1a 20 b3 01 19 18 b3 01 14 28 b3 01 0a 1c b3 01 02 3c b3 01 00 08 83 42 49 20 93 45 49 81 54 83 45 49 2c 93 47 49 81 38 83 47 49 3c 93 3e 49 30 b3 01 01 3c b3 01 03 24 b3 01 0a 28 b3 01 0e 1c b3 01 16 24 b3 01 1a 20 b3 01 1b 28 b3 01 14 24 b3 01 01 18 b3 01 00 38 83 3e 49 82 48 93 42 40 1c b3 01 01 38 b3 01 0d 1c b3 01 1b 24 b3 01 25 24 b3 01 28 28 b3 01 22 24 b3 01 14 04 83 42 40 10 93 45 49 10 b3 01 01 24 b3 01 00 81 10 83 45 49 38 93 47 40 81 3c 83 47 40 30 93 3e 49 40 b3 01 01 24 b3 01 05 18 b3 01 08 24 b3 01 0f 24 b3 01 15 20 b3 01 1b 24 b3 01 1f 24 b3 01 23 24 b3 01 28 24 b3 01 2b 48 b3 01 24 24 b3 01 12 1c 83 3e 49 0c b3 01 00 40 93 42 38 81 34 83 42 38 10 93 43 49 30 b3 01 01 20 b3 01 0d 24 b3 01 15 20 b3 01 1a 18 b3 01 1d 24 b3 01 1f 5c b3 01 1b 1c 83 43 49 00 b3 01 14 28 b3 01 0a 0c 93 42 34 14 b3 01 01 34 b3 01 00 82 10 83 42 34 24 93 40 49 40 b3 01 01 20 b3 01 05 20 b3 01 0f 24 b3 01 16 24 b3 01 1d 24 b3 01 20 6c b3 01 1a 24 b3 01 10 14 83 40 49 00 93 3e 40 14 b3 01 01 20 b3 01 00 81 70 83 3e 40 54 93 3e 49 81 24 b3 01 01 58 b3 01 03 24 b3 01 06 18 b3 01 08 24 b3 01 0b 18 b3 01 0c 18 b3 01 0f 24 b3 01 12 1c b3 01 13 18 b3 01 16 2c b3 01 18 1c b3 01 19 20 b3 01 1b 24 b3 01 1d 18 b3 01 20 1c b3 01 21 18 b3 01 23 24 b3 01 24 18 b3 01 25 70 b3 01 24 34 b3 01 22 1c b3 01 1f 30 b3 01 1d 24 b3 01 1b 18 b3 01 18 24 b3 01 17 18 b3 01 15 28 b3 01 12 20 b3 01 0e 20 b3 01 09 24 b3 01 02 44 b3 01 00 60 83 3e 49 91 30 93 42 1f 81 30 83 42 1f 18 93 43 40 44 b3 01 03 1c b3 01 0c 20 b3 01 13 28 b3 01 16 38 b3 01 13 20 b3 01 0a 24 b3 01 01 08 83 43 40 1c b3 01 00 34 93 47 3c 82 48 83 47 3c 30 93 45 38 81 34 b3 01 01 70 b3 01 03 30 b3 01 06 1c b3 01 08 30 b3 01 0b 2c b3 01 0c 24 b3 01 0d 3c b3 01 0f 14 93 39 2b 08 b3 01 11 30 b3 01 12 24 b3 01 13 1c b3 01 14 18 b3 01 15 34 93 42 3d 08 83 39 2b 58 b3 01 16 58 b3 01 18 1c b3 01 19 1c b3 01 1a 18 b3 01 1b 24 b3 01 1c 18 83 42 3d 38 93 40 31 44 b3 01 1b 20 b3 01 19 1c b3 01 17 28 b3 01 14 20 b3 01 12 28 b3 01 0f 18 b3 01 0e 1c b3 01 0b 24 b3 01 06 20 83 40 31 04 b3 01 01 14 93 3e 28 18 b3 01 00 3c 83 45 38 83 58 83 3e 28 1c 93 42 28 81 30 83 42 28 18 93 43 40 82 1c 83 43 40 50 93 47 40 82 38 83 47 40 40 93 45 40 83 34 b3 01 01 6c b3 01 03 24 b3 01 08 2c b3 01 0a 2c b3 01 0c 1c b3 01 0d 30 b3 01 0f 24 93 42 34 0c b3 01 11 2c b3 01 12 20 b3 01 13 20 b3 01 14 70 83 42 34 18 93 40 30 20 b3 01 15 68 b3 01 14 28 b3 01 12 1c b3 01 11 14 83 40 30 18 93 3e 40 08 b3 01 0f 20 b3 01 0d 20 b3 01 0a 20 b3 01 07 1c b3 01 05 1c b3 01 01 2c b3 01 00 2c 83 3e 40 08 93 39 34 2c 83 45 40 83 58 83 39 34 44 93 4a 30 81 3c 93 49 38 08 83 4a 30 81 2c 83 49 38 0c 93 47 49 81 30 83 47 49 18 93 45 3c 82 58 83 45 3c 28 93 45 38 81 18 b3 01 01 81 24 b3 01 04 28 b3 01 07 2c b3 01 09 18 b3 01 0c 28 b3 01 10 28 b3 01 12 2c b3 01 14 20 b3 01 16 1c b3 01 17 24 b3 01 18 30 b3 01 19 40 93 3e 30 1c b3 01 1a 81 18 b3 01 19 28 93 3d 30 04 83 3e 30 38 b3 01 17 18 b3 01 16 30 b3 01 14 20 b3 01 12 1c b3 01 10 20 b3 01 0d 08 83 3d 30 14 93 3b 30 00 b3 01 0c 18 b3 01 0b 20 b3 01 0a 2c b3 01 07 20 b3 01 03 18 b3 01 01 38 b3 01 00 20 83 3b 30 08 93 39 28 2c 83 45 38 84 10 83 39 28 81 78 93 42 3a 81 78 83 42 3a 18 93 42 3a 81 70 83 42 3a 10 93 40 3c 8c 78 83 40 3c 64 93 42 20 82 30 b3 01 01 81 00 b3 01 06 28 b3 01 09 18 b3 01 0a 20 b3 01 0d 1c b3 01 10 1c b3 01 11 1c b3 01 12 2c b3 01 14 20 b3 01 16 28 b3 01 18 28 b3 01 1a 28 b3 01 1c 28 b3 01 1e 18 b3 01 1f 24 b3 01 20 20 b3 01 21 24 b3 01 22 18 b3 01 23 44 b3 01 24 81 24 b3 01 23 24 b3 01 22 18 b3 01 21 1c b3 01 20 1c b3 01 1f 18 b3 01 1e 28 b3 01 1b 1c b3 01 17 24 b3 01 12 08 83 42 20 1c b3 01 0a 24 b3 01 03 18 b3 01 00 ce 30 b3 79 7f 85 44 ff 2f 00 4d 54 72 6b 00 00 05 bf 00 ff 03 09 4f 56 45 52 44 52 49 56 45 83 50 b4 00 00 08 c4 1d 04 b4 07 7f 00 b4 0a 40 00 b4 0b 7f 04 b4 5b 64 00 b4 5d 00 81 b4 00 e4 04 42 10 e4 0c 46 10 e4 1a 4d 14 e4 2a 55 14 e4 3c 5e 14 e4 52 69 10 e4 62 71 10 e4 72 79 10 e4 7e 7f 81 14 94 52 40 82 28 e4 7a 7d 10 e4 70 78 10 e4 64 72 14 e4 58 6c 14 e4 4e 67 14 e4 42 61 10 e4 38 5c 10 e4 2e 57 10 e4 26 53 14 e4 1e 4f 10 e4 1a 4d 14 e4 10 48 10 e4 0a 45 14 e4 00 40 81 54 84 52 40 84 bd 1c 94 39 6d 18 94 38 4b 10 94 37 4e 10 84 39 6d 0c 94 36 49 08 84 38 4b 0c 94 35 52 04 84 37 4e 0c 94 34 49 0c 84 36 49 0c 94 33 40 08 84 35 52 10 84 34 49 04 94 32 40 18 84 33 40 04 94 31 3c 14 84 32 40 08 94 30 38 14 84 31 3c 08 94 2f 38 14 84 30 38 0c 94 2e 38 18 84 2f 38 38 84 2e 38 20 94 3d 5b 81 60 e4 02 41 14 e4 0a 45 14 e4 0e 47 44 e4 08 44 14 e4 00 40 1c 94 3b 49 14 84 3d 5b 81 24 94 3e 5d 08 84 3b 49 81 2c e4 04 42 10 e4 0e 47 10 e4 16 4b 14 e4 18 4c 18 e4 10 48 14 e4 06 43 18 e4 00 40 48 84 3e 5d 08 94 3d 49 81 38 94 39 4e 0c 84 3d 49 81 40 94 34 57 04 84 39 4e 81 78 e4 04 42 18 e4 08 44 34 e4 06 43 10 e4 00 40 64 e4 08 44 10 e4 0c 46 30 e4 08 44 14 e4 00 40 64 e4 04 42 10 e4 08 44 14 e4 0c 46 34 e4 08 44 10 e4 00 40 50 e4 02 41 10 e4 08 44 14 e4 0e 47 38 e4 0a 45 14 e4 00 40 54 e4 06 43 10 e4 0c 46 14 e4 10 48 30 e4 0a 45 14 e4 00 40 50 e4 02 41 14 e4 0a 45 3c e4 06 43 10 e4 00 40 81 3c 94 33 31 18 94 32 3d 08 84 34 57 14 84 33 31 10 94 31 3d 14 84 32 3d 08 94 30 3d 14 84 31 3d 10 94 2f 2b 20 84 30 3d 1c 84 2f 2b 82 00 94 34 57 50 94 36 38 0c 84 34 57 54 94 39 4b 28 84 36 38 48 94 3b 3d 20 84 39 4b 30 94 3d 57 28 84 3b 3d 08 b4 01 01 3c b4 01 09 18 b4 01 10 18 b4 01 16 18 b4 01 1c 18 b4 01 23 18 b4 01 28 18 b4 01 2b 38 b4 01 25 18 b4 01 1a 18 b4 01 08 18 b4 01 00 0c 84 3d 57 0c 94 3b 4b 2c 94 3d 42 1c 84 3b 4b 7c 94 40 5a 0c 84 3d 42 81 2c 94 45 5b 08 84 40 5a 81 34 84 45 5b 0c 94 45 64 14 e4 0c 46 14 e4 28 54 10 e4 44 62 10 e4 58 6c 10 e4 6e 77 14 e4 7e 7f 82 0c 84 45 64 04 e4 00 40 04 94 45 5a 81 20 84 45 5a 18 94 45 5f 81 40 e4 0a 45 10 e4 14 4a 10 e4 18 4c 30 e4 12 49 14 e4 08 44 10 e4 00 40 4c e4 06 43 10 e4 10 48 14 e4 14 4a 10 e4 12 49 14 e4 0a 45 10 e4 00 40 4c 84 45 5f 20 94 44 5b 82 04 84 44 5b 08 94 45 48 3c 94 44 45 10 84 45 48 2c 94 42 5a 10 84 44 45 81 00 b4 01 01 18 b4 01 03 1c b4 01 0f 18 b4 01 1b 1c b4 01 2a 18 b4 01 35 18 b4 01 39 24 b4 01 37 18 b4 01 2d 18 94 36 31 04 b4 01 17 1c 84 42 5a 00 b4 01 03 18 b4 01 00 28 94 3d 4b 10 84 36 31 44 94 42 5a 18 84 3d 4b 81 14 84 42 5a 18 94 41 57 81 64 e4 08 44 10 e4 18 4c 10 e4 22 51 14 e4 2a 55 10 e4 28 54 14 e4 1e 4f 10 e4 0c 46 10 e4 00 40 28 e4 04 42 14 e4 16 4b 18 e4 22 51 14 e4 20 50 10 e4 10 48 14 e4 00 40 34 94 40 40 2c 94 3f 3a 0c 84 41 57 10 84 40 40 04 94 3e 3a 20 94 3d 37 04 84 3f 3a 18 84 3e 3a 00 94 3c 32 18 84 3d 37 00 94 3b 2e 18 84 3c 32 00 94 3a 1f 18 84 3b 2e 00 94 39 1a 14 84 3a 1f 04 94 36 5f 1c 84 39 1a 48 94 3d 48 14 84 36 5f 44 94 40 5a 0c 84 3d 48 81 28 94 42 49 0c 84 40 5a 81 34 84 42 49 10 94 45 5b 81 34 e4 20 50 10 e4 4e 67 10 e4 7e 7f 60 84 45 5b 08 94 45 3d 34 84 45 3d 00 e4 00 40 10 94 4c 5a 81 3c e4 18 4c 10 e4 4e 67 10 e4 7e 7f 7c 84 4c 5a 2c 94 4f 5a 34 b4 01 01 2c b4 01 0d 18 b4 01 17 18 b4 01 1f 1c b4 01 2a 18 b4 01 31 18 b4 01 39 18 b4 01 3f 18 b4 01 44 18 b4 01 47 3c b4 01 42 1c 84 4f 5a 00 b4 01 35 0c 94 4f 51 10 b4 01 17 18 b4 01 00 81 1c 84 4f 51 04 94 51 5b 81 1c 84 51 5b 04 e4 00 40 10 94 4c 49 6c e4 12 49 10 e4 4c 66 10 e4 7e 7f 24 84 4c 49 08 e4 00 40 0c 94 51 54 5c 94 4c 49 14 84 51 54 44 94 40 49 00 94 53 40 1c 84 4c 49 44 94 4c 49 08 84 40 49 0c 84 53 40 50 94 55 54 1c 84 4c 49 38 94 4c 38 1c 84 55 54 40 84 4c 38 04 94 56 52 60 94 4c 40 18 84 56 52 40 84 4c 40 08 94 58 5b 81 68 b4 01 01 2c b4 01 03 18 b4 01 08 20 b4 01 0d 18 b4 01 10 1c b4 01 14 1c b4 01 18 18 b4 01 1b 1c b4 01 1f 1c b4 01 21 18 b4 01 23 20 b4 01 26 20 b4 01 29 1c b4 01 2b 1c b4 01 2d 24 b4 01 2f 24 b4 01 31 20 b4 01 33 2c b4 01 36 20 b4 01 39 1c b4 01 3b 24 b4 01 3e 18 b4 01 40 24 b4 01 43 24 b4 01 46 1c b4 01 48 20 b4 01 4a 3c b4 01 48 1c b4 01 44 18 b4 01 3e 1c b4 01 37 18 b4 01 2f 1c b4 01 27 18 b4 01 1d 18 b4 01 13 1c b4 01 0a 18 b4 01 01 08 94 35 42 20 b4 01 00 08 84 58 5b 08 94 34 40 18 84 35 42 08 94 33 31 18 84 34 40 04 94 32 31 14 84 33 31 04 94 31 31 10 84 32 31 00 94 30 2e 14 84 31 31 00 94 2f 2b 14 84 30 2e 00 94 2e 28 14 84 2f 2b 08 94 2d 28 1c 84 2e 28 1c 84 2d 28 83 aa 1c b4 79 7f 85 30 ff 2f 00 4d 54 72 6b 00 00 08 19 00 ff 03 04 48 41 52 50 83 64 b5 00 00 08 c5 2e 04 b5 07 7f 00 b5 0a 20 00 b5 0b 7f 04 b5 5b 64 00 b5 5d 00 bb 2c 95 2e 0e 14 85 2e 0e 08 95 30 17 30 95 32 1a 10 85 30 17 2c 95 33 1d 0c 85 32 1a 1c 95 35 1d 0c 85 33 1d 20 95 37 1d 0c 85 35 1d 1c 95 39 1d 10 85 37 1d 1c 95 3a 1d 10 85 39 1d 18 95 3c 1d 10 85 3a 1d 1c 95 3e 1d 0c 85 3c 1d 1c 95 3f 1f 10 85 3e 1d 18 95 41 1f 0c 85 3f 1f 1c 95 43 22 08 85 41 1f 18 95 45 22 08 85 43 22 18 95 46 22 0c 85 45 22 18 95 48 28 0c 85 46 22 14 95 4a 2e 10 85 48 28 14 95 4b 2e 10 85 4a 2e 14 95 4d 2e 10 85 4b 2e 18 95 4f 31 10 85 4d 2e 18 95 51 31 0c 85 4f 31 18 95 52 31 10 85 51 31 18 95 54 31 0c 85 52 31 14 95 56 34 10 85 54 31 18 95 57 37 0c 85 56 34 1c 95 59 3a 0c 85 57 37 18 95 5b 3a 10 85 59 3a 14 95 5d 3a 10 85 5b 3a 1c 95 5e 45 0c 85 5d 3a 84 4c 85 5e 45 81 b2 40 95 46 4b 24 95 45 42 20 85 46 4b 04 95 43 3d 14 85 45 42 00 95 41 3d 18 85 43 3d 04 95 3f 3d 10 85 41 3d 00 95 3e 3b 14 85 3f 3d 04 95 3c 3a 14 85 3e 3b 04 95 3a 34 14 85 3c 3a 0c 95 39 31 14 85 3a 34 18 95 37 2b 0c 85 39 31 1c 95 35 20 0c 85 37 2b 14 95 33 2c 10 85 35 20 10 85 33 2c 08 95 35 24 08 95 37 37 10 85 35 24 20 95 39 28 10 85 37 37 24 95 3a 34 14 85 39 28 1c 95 3c 38 10 85 3a 34 1c 95 3e 38 14 85 3c 38 1c 95 3f 3c 10 85 3e 38 1c 95 41 3c 14 85 3f 3c 1c 95 43 40 10 85 41 3c 18 95 45 40 10 85 43 40 18 95 46 49 10 85 45 40 0c 85 46 49 18 95 48 3d 38 95 4a 3a 0c 85 48 3d 24 95 4b 37 10 85 4a 3a 1c 95 4d 31 14 85 4b 37 1c 95 4f 2e 10 85 4d 31 18 95 51 25 10 85 4f 2e 18 95 52 25 10 85 51 25 0c 85 52 25 d7 04 95 46 4b 24 95 45 42 20 85 46 4b 04 95 43 3d 14 85 45 42 00 95 41 3d 18 85 43 3d 04 95 3f 3d 10 85 41 3d 00 95 3e 3b 14 85 3f 3d 04 95 3c 3a 14 85 3e 3b 04 95 3a 34 14 85 3c 3a 0c 95 39 31 14 85 3a 34 18 95 37 2b 0c 85 39 31 1c 95 35 20 0c 85 37 2b 14 95 33 2c 10 85 35 20 10 85 33 2c 08 95 35 24 08 95 37 37 10 85 35 24 20 95 39 28 10 85 37 37 24 95 3a 34 14 85 39 28 1c 95 3c 38 10 85 3a 34 1c 95 3e 38 14 85 3c 38 1c 95 3f 3c 10 85 3e 38 1c 95 41 3c 14 85 3f 3c 1c 95 43 40 10 85 41 3c 18 95 45 40 10 85 43 40 18 95 46 49 10 85 45 40 0c 85 46 49 18 95 48 3d 38 95 4a 3a 0c 85 48 3d 24 95 4b 37 10 85 4a 3a 1c 95 4d 31 14 85 4b 37 1c 95 4f 2e 10 85 4d 31 18 95 51 25 10 85 4f 2e 18 95 52 25 10 85 51 25 0c 85 52 25 ec 04 95 31 1d 2c 95 33 20 14 85 31 1d 44 95 35 1a 08 85 33 20 40 95 36 1a 10 85 35 1a 30 95 38 1f 14 85 36 1a 28 95 3a 28 0c 85 38 1f 30 95 3c 24 10 85 3a 28 28 95 3d 24 10 85 3c 24 30 95 3f 24 10 85 3d 24 2c 95 41 24 14 85 3f 24 28 95 42 2c 10 85 41 24 28 95 44 2c 14 85 42 2c 28 95 46 2c 10 85 44 2c 2c 95 48 24 10 85 46 2c 2c 95 49 28 14 85 48 24 2c 95 4b 28 20 85 49 28 28 95 4d 24 18 85 4b 28 28 95 4e 24 10 85 4d 24 24 95 50 34 18 85 4e 24 20 95 52 38 14 85 50 34 1c 95 54 38 10 85 52 38 18 95 55 2e 18 85 54 38 14 95 57 34 14 85 55 2e 14 95 59 37 10 85 57 34 14 95 5a 3a 0c 85 59 37 1c 95 5c 3a 08 85 5a 3a 14 95 5e 3d 14 85 5c 3a 10 95 60 42 10 85 5e 3d 18 95 61 51 60 85 60 42 81 50 85 61 51 d8 5c 95 38 10 3c 95 3a 22 14 85 38 10 28 95 3c 1d 14 85 3a 22 24 95 3d 1f 10 85 3c 1d 24 95 3f 22 10 85 3d 1f 20 95 41 2b 14 85 3f 22 24 95 42 2e 0c 85 41 2b 20 95 44 31 10 85 42 2e 1c 95 46 34 10 85 44 31 18 95 48 37 0c 85 46 34 10 95 49 3a 14 85 48 37 10 95 4b 3a 10 85 49 3a 14 95 4d 3a 10 85 4b 3a 14 95 4e 40 10 85 4d 3a 1c 95 50 4b 10 85 4e 40 81 20 85 50 4b d8 48 95 2c 28 34 95 2e 24 10 85 2c 28 2c 95 30 1f 14 85 2e 24 28 95 33 1f 10 85 30 1f 24 95 35 1f 10 85 33 1f 1c 95 36 22 0c 85 35 1f 20 95 38 25 10 85 36 22 14 95 3a 28 10 85 38 25 14 95 3c 2b 14 85 3a 28 10 95 3d 2c 10 85 3c 2b 10 95 3f 2e 0c 85 3d 2c 10 95 41 2f 10 85 3f 2e 10 95 42 31 0c 85 41 2f 0c 95 44 34 14 85 42 31 0c 95 46 37 10 85 44 34 08 95 48 3a 0c 85 46 37 14 95 49 3a 10 85 48 3a 08 95 4b 3d 10 85 49 3a 10 95 4d 40 10 85 4b 3d 10 95 4e 48 14 85 4d 40 0c 95 50 48 10 85 4e 48 18 95 54 4e 18 85 50 48 81 40 85 54 4e d8 10 95 44 49 2c 95 42 3a 18 85 44 49 10 95 41 3a 30 95 3f 37 04 85 42 3a 14 85 41 3a 1c 95 3d 34 14 85 3f 37 1c 95 3c 34 10 85 3d 34 1c 95 3a 2c 14 85 3c 34 1c 95 38 24 10 85 3a 2c 1c 95 36 30 1c 85 38 24 14 95 35 34 14 85 36 30 20 95 33 34 10 85 35 34 1c 95 31 30 14 85 33 34 1c 95 30 34 14 85 31 30 1c 95 2e 38 10 85 30 34 24 95 2c 30 14 85 2e 38 81 30 85 2c 30 d6 14 95 45 46 08 95 44 3a 18 95 42 37 10 85 45 46 1c 85 44 3a 00 95 40 31 1c 85 42 37 00 95 3e 3f 18 95 3d 28 04 85 40 31 1c 95 3b 22 04 85 3e 2f 1c 95 39 1f 08 85 3d 28 28 85 3b 22 00 95 38 1a 30 85 39 1f 08 95 36 17 2c 85 38 1a 08 95 34 17 24 85 36 17 0c 85 34 17 14 95 3b 38 10 95 39 3a 18 85 3b 38 10 95 38 3a 18 85 39 3a 10 95 36 37 14 85 38 3a 0c 95 34 31 14 85 36 37 04 95 32 2b 14 85 34 31 08 95 31 25 18 85 32 2b 04 95 2f 23 14 85 31 25 08 95 2d 22 18 85 2f 23 04 95 2c 1e 1c 85 2d 22 04 95 2a 1f 1c 85 2c 1e 04 95 28 1d 1c 85 2a 1f 1c 95 26 22 34 85 28 1d 14 85 26 22 db 74 95 2a 25 24 95 2c 25 10 85 2a 25 20 95 2d 28 10 85 2c 25 18 95 2f 28 0c 85 2d 28 1c 95 31 28 0c 85 2f 28 18 95 32 28 10 85 31 28 14 95 34 2b 0c 85 32 28 14 95 36 2b 10 85 34 2b 14 95 38 2e 10 85 36 2b 14 95 39 2e 0c 85 38 2e 10 95 3b 34 10 85 39 2e 14 95 3d 37 10 85 3b 34 10 95 3e 3a 0c 85 3d 37 18 95 40 3d 08 85 3e 3a 18 95 42 42 0c 85 40 3d 14 95 44 45 0c 85 42 42 18 95 45 45 0c 85 44 45 14 95 47 45 10 85 45 45 14 95 49 45 10 85 47 45 10 95 4a 45 10 85 49 45 18 95 4c 45 0c 85 4a 45 14 95 4e 3a 10 85 4c 45 18 95 50 37 0c 85 4e 3a 20 95 51 31 14 85 50 37 81 1c 85 51 31 81 87 34 95 47 20 30 95 4a 20 28 95 4e 30 04 85 47 20 38 85 4a 20 00 95 53 3c 14 85 4e 30 18 85 53 3c dc 4c 95 32 10 14 95 34 1e 20 85 32 10 28 95 36 1f 10 85 34 1e 2c 95 37 24 10 85 36 1f 20 95 39 2c 10 85 37 24 20 95 3b 2b 14 85 39 2c 24 95 3d 28 0c 85 3b 2b 20 95 3e 2e 10 85 3d 28 24 95 40 2e 14 85 3e 2e 18 95 42 2e 10 85 40 2e 20 95 43 2e 14 85 42 2e 18 95 45 2b 14 85 43 2e 18 95 47 2e 10 85 45 2b 18 95 49 31 10 85 47 2e 18 95 4a 34 10 85 49 31 18 95 4c 34 10 85 4a 34 18 95 4e 34 10 85 4c 34 14 95 4f 37 0c 85 4e 34 18 95 51 3a 10 85 4f 37 10 95 53 3d 14 85 51 3a 14 95 55 3d 0c 85 53 3d 10 95 56 3d 10 85 55 3d 14 95 58 40 10 85 56 3d 14 95 5a 42 0c 85 58 40 1c 95 5b 42 08 85 5a 42 20 95 5d 42 10 85 5b 42 18 95 5f 42 10 85 5d 42 1c 95 61 40 0c 85 5f 42 20 95 62 49 10 85 61 40 2c 85 62 49 da 1c b5 79 7f 85 1c ff 2f 00 4d 54 72 6b 00 00 00 4a 00 ff 03 0a 2b 46 45 45 44 42 43 4b 47 54 83 78 b6 00 08 08 c6 1f 04 b6 07 7f 00 b6 0a 40 00 b6 0b 7f 04 b6 5b 64 00 b6 5d 00 86 87 48 96 4c 34 84 48 96 58 3a 81 38 86 4c 34 86 0c 86 58 3a 83 f3 1c b6 79 7f 85 08 ff 2f 00 4d 54 72 6b 00 00 03 56 00 ff 03 08 46 41 4e 54 41 53 49 41 84 0c b7 00 00 08 c7 58 04 b7 07 7f 00 b7 0a 60 00 b7 0b 7f 04 b7 5b 64 00 b7 5d 00 9c 64 97 54 30 81 44 97 56 38 04 87 54 30 8a 2c 87 56 38 08 97 54 30 81 40 87 54 30 04 97 52 30 84 2c 87 52 30 10 97 54 2c 81 3c 97 56 34 04 87 54 2c 8b 48 87 56 34 2c 97 56 30 84 48 97 54 20 04 87 56 30 81 24 87 54 20 14 97 52 2c 81 3c 87 52 2c 90 58 97 41 28 81 34 97 4a 37 08 87 41 28 81 30 97 3f 30 14 87 4a 37 81 38 97 48 30 0c 87 3f 30 82 6c 87 48 30 00 97 41 2e 83 10 87 41 2e bd 3c 97 4d 2c 81 34 97 56 40 08 87 4d 2c 81 34 87 56 40 08 97 4b 30 81 38 97 54 34 08 87 4b 30 81 38 97 4a 3c 04 87 54 34 81 40 97 52 30 10 87 4a 3c 86 08 87 52 30 88 70 97 3f 30 00 97 48 34 81 38 97 4b 34 04 97 43 30 14 87 48 34 08 87 3f 30 82 68 97 41 34 04 87 43 30 04 97 4a 30 10 87 4b 34 81 24 97 46 34 04 97 3e 28 08 87 41 34 04 87 4a 30 81 34 97 41 34 08 87 46 34 81 2c 87 3e 28 83 08 87 41 34 c5 04 97 59 40 85 78 87 59 40 da 08 97 59 42 81 28 87 59 42 10 97 54 34 81 44 97 4d 34 08 87 54 34 81 38 97 59 34 10 87 4d 34 81 2c 97 51 2b 14 87 59 34 81 7c 87 51 2b cb 4c 97 4f 28 10 97 57 38 28 87 4f 28 0c 87 57 38 82 60 97 56 38 28 87 56 38 82 48 97 54 3c 34 87 54 3c 82 5c 97 52 38 20 87 52 38 8a 24 97 41 28 81 44 97 48 28 81 44 97 4a 28 81 5c 87 41 28 28 87 48 28 24 87 4a 28 54 97 4d 2b 81 38 97 54 34 81 3c 97 56 38 85 6c 87 4d 2b 70 87 54 34 04 87 56 38 91 34 97 44 1d 81 34 97 4d 38 2c 87 44 1d 81 1c 97 42 28 10 87 4d 38 81 24 97 4b 3c 24 87 42 28 81 1c 97 41 30 10 87 4b 3c 81 38 97 49 30 0c 87 41 30 85 7c 87 49 30 82 92 30 97 58 49 81 40 97 55 49 0c 87 58 49 81 30 87 55 49 0c 97 56 48 81 2c 87 56 48 08 97 53 49 81 40 97 55 48 08 87 53 49 81 38 87 55 48 08 97 51 51 85 78 87 51 51 81 48 97 49 40 81 40 97 4c 45 08 87 49 40 81 34 87 4c 45 0c 97 51 40 81 38 87 51 40 04 97 53 49 82 7c 97 51 40 08 87 53 49 81 20 87 51 40 20 97 51 49 84 28 87 51 49 14 97 50 48 83 0c 87 50 48 00 97 4e 40 85 5c 87 4e 40 86 10 97 49 3d 81 44 97 4e 45 08 87 49 3d 81 38 97 50 49 04 87 4e 45 82 7c 87 50 49 04 97 51 49 82 6c 87 51 49 0c 97 53 4b 83 08 97 51 52 0c 87 53 4b 8c 00 87 51 52 84 24 97 4e 3c 81 4c 97 4f 45 08 87 4e 3c 83 00 97 53 48 0c 87 4f 45 82 68 87 53 48 08 97 51 4e 86 20 87 51 4e 81 ce 60 97 56 37 8a 38 87 56 37 04 97 47 28 81 40 97 49 34 08 87 47 28 81 40 97 4a 31 08 87 49 34 81 38 97 51 3d 1c 87 4a 31 82 68 97 53 31 04 87 51 3d 8b 0c 87 53 31 ee 1c 97 45 28 81 44 97 4e 40 18 87 45 28 81 2c 97 43 38 14 87 4e 40 81 2c 97 4c 30 14 87 43 38 81 2c 97 42 34 04 87 4c 30 81 3c 97 4a 31 20 87 42 34 85 48 87 4a 31 bd 28 b7 79 7f 84 74 ff 2f 00 4d 54 72 6b 00 00 00 57 00 ff 03 09 41 2e 50 49 41 4e 4f 20 32 84 20 b8 00 00 08 c8 01 04 b8 07 7f 00 b8 0a 20 00 b8 0b 7f 04 b8 5b 64 00 b8 5d 00 81 a2 10 98 3e 2c 44 98 41 34 24 98 46 45 44 98 4a 4b 83 04 88 3e 2c 14 88 41 34 04 88 4a 4b 0c 88 46 45 88 e0 0c b8 79 7f 84 60 ff 2f 00 4d 54 72 6b 00 00 1a c9 00 ff 03 05 44 52 55 4d 53 84 34 b9 00 00 08 c9 10 04 b9 07 7f 00 b9 0a 40 00 b9 0b 7f 04 b9 5b 64 00 b9 5d 00 93 3c 99 46 45 70 89 46 45 50 99 46 34 54 89 46 34 6c 99 46 34 70 89 46 34 50 99 46 20 81 40 99 25 52 1c 89 46 20 81 18 89 25 52 8a 4c 99 36 5b 60 89 36 5b 85 20 99 46 45 70 89 46 45 50 99 46 34 54 89 46 34 6c 99 46 34 70 89 46 34 50 99 46 20 81 40 99 25 52 1c 89 46 20 81 18 89 25 52 8a 4c 99 36 5b 60 89 36 5b 84 28 99 33 1d 20 99 3b 2d 14 89 33 1d 10 99 33 2c 24 89 3b 2d 10 99 3b 40 00 99 46 45 18 89 33 2c 18 89 3b 40 40 89 46 45 50 99 46 34 54 89 46 34 6c 99 46 34 70 89 46 34 50 99 46 20 81 40 99 25 52 1c 89 46 20 81 18 89 25 52 8a 4c 99 36 5b 60 89 36 5b 60 99 50 24 81 40 99 51 34 08 89 50 24 82 58 89 51 34 20 99 46 45 70 89 46 45 50 99 46 34 54 89 46 34 6c 99 46 34 70 89 46 34 50 99 46 20 81 40 99 25 52 1c 89 46 20 81 18 89 25 52 8a 4c 99 36 5b 60 89 36 5b 85 20 99 46 45 70 89 46 45 50 99 46 34 54 89 46 34 6c 99 46 34 70 89 46 34 50 99 46 20 81 40 99 25 52 1c 89 46 20 81 18 89 25 52 8a 4c 99 36 5b 60 89 36 5b 60 99 50 24 81 40 99 51 34 08 89 50 24 82 58 89 51 34 20 99 46 45 70 89 46 45 50 99 46 34 54 89 46 34 6c 99 46 34 70 89 46 34 50 99 46 20 81 40 99 25 52 1c 89 46 20 81 18 89 25 52 8a 4c 99 36 5b 60 89 36 5b 84 28 99 33 1d 20 99 3b 2d 14 89 33 1d 10 99 33 2c 24 89 3b 2d 10 99 3b 40 00 99 46 45 18 89 33 2c 18 89 3b 40 40 89 46 45 50 99 46 34 54 89 46 34 6c 99 46 34 70 89 46 34 50 99 46 20 81 40 99 25 52 1c 89 46 20 81 18 89 25 52 8a 4c 99 36 5b 60 89 36 5b 60 99 50 24 81 40 99 51 34 08 89 50 24 81 38 99 2e 37 00 99 35 30 81 20 89 51 34 1c 89 35 30 04 99 2c 38 00 99 33 30 00 99 46 45 24 89 2e 37 4c 89 46 45 50 99 46 34 54 89 46 34 04 89 33 30 14 89 2c 38 54 99 46 34 70 89 46 34 50 99 46 20 81 40 99 25 52 1c 89 46 20 81 18 89 25 52 8a 4c 99 36 5b 60 89 36 5b 85 20 99 46 45 70 89 46 45 50 99 46 34 54 89 46 34 6c 99 46 34 70 89 46 34 50 99 46 20 81 40 99 25 52 1c 89 46 20 81 18 89 25 52 8a 4c 99 36 5b 60 89 36 5b 60 99 50 24 81 40 99 51 34 08 89 50 24 82 58 89 51 34 20 99 46 45 70 89 46 45 50 99 46 34 54 89 46 34 6c 99 46 34 70 89 46 34 50 99 46 20 81 40 99 25 52 1c 89 46 20 81 18 89 25 52 8a 4c 99 36 5b 60 89 36 5b 84 28 99 33 1d 20 99 3b 2d 14 89 33 1d 10 99 33 2c 24 89 3b 2d 10 99 37 26 00 99 3b 40 00 99 46 45 18 89 33 2c 18 89 3b 40 00 89 37 26 40 89 46 45 50 99 46 34 54 89 46 34 6c 99 46 34 70 89 46 34 50 99 46 20 81 40 99 25 52 1c 89 46 20 81 18 89 25 52 8a 4c 99 36 5b 60 89 36 5b 85 20 99 46 45 70 89 46 45 50 99 46 34 54 89 46 34 6c 99 46 34 70 89 46 34 50 99 46 20 81 40 99 25 52 1c 89 46 20 81 18 89 25 52 8a 4c 99 36 5b 60 89 36 5b 85 20 99 46 45 70 89 46 45 50 99 46 34 54 89 46 34 6c 99 46 34 70 89 46 34 50 99 46 20 81 40 99 25 52 1c 89 46 20 81 18 89 25 52 8a 4c 99 36 5b 60 89 36 5b 60 99 50 24 81 40 99 51 34 08 89 50 24 82 58 89 51 34 20 99 46 45 70 89 46 45 50 99 46 34 54 89 46 34 6c 99 46 34 70 89 46 34 50 99 46 20 81 40 99 25 52 1c 89 46 20 81 18 89 25 52 8a 4c 99 36 5b 60 89 36 5b 84 28 99 33 1d 20 99 3b 2d 14 89 33 1d 10 99 33 2c 24 89 3b 2d 10 99 37 26 00 99 3b 40 00 99 46 45 18 89 33 2c 18 89 3b 40 00 89 37 26 40 89 46 45 50 99 46 34 54 89 46 34 6c 99 46 34 70 89 46 34 50 99 46 20 81 40 99 25 52 1c 89 46 20 81 18 89 25 52 86 0c 99 50 24 3c 89 50 24 81 04 99 50 24 3c 89 50 24 81 04 99 51 34 81 40 99 36 5b 60 89 36 5b 40 89 51 34 84 60 99 46 45 70 89 46 45 50 99 46 34 54 89 46 34 6c 99 46 34 70 89 46 34 50 99 46 20 81 40 99 25 52 1c 89 46 20 81 18 89 25 52 86 0c 99 50 24 3c 89 50 24 81 04 99 50 24 3c 89 50 24 81 04 99 51 34 81 40 99 36 5b 60 89 36 5b 40 89 51 34 84 60 99 46 45 70 89 46 45 50 99 46 34 54 89 46 34 6c 99 46 34 70 89 46 34 50 99 46 20 81 40 99 25 52 1c 89 46 20 81 18 89 25 52 86 0c 99 50 24 3c 89 50 24 81 04 99 50 24 3c 89 50 24 81 04 99 51 34 81 40 99 36 5b 60 89 36 5b 40 89 51 34 84 60 99 46 45 70 89 46 45 50 99 46 34 54 89 46 34 6c 99 46 34 70 89 46 34 50 99 46 20 81 40 99 25 52 1c 89 46 20 81 18 89 25 52 86 0c 99 50 24 3c 89 50 24 81 04 99 50 24 3c 89 50 24 81 04 99 51 34 81 40 99 36 5b 60 89 36 5b 40 89 51 34 83 68 99 33 1d 20 99 3b 2d 14 89 33 1d 10 99 33 2c 24 89 3b 2d 10 99 31 26 00 99 3b 40 00 99 46 45 18 89 33 2c 18 89 3b 40 00 89 31 26 40 89 46 45 50 99 46 34 54 89 46 34 6c 99 46 34 70 89 46 34 50 99 46 20 81 40 99 25 52 1c 89 46 20 81 18 89 25 52 8a 4c 99 26 49 00 99 36 5b 60 89 36 5b 54 89 26 49 0c 99 2d 40 81 40 99 2b 52 82 08 99 33 1d 20 99 3b 2d 14 89 33 1d 08 89 2b 52 08 99 33 2c 08 89 2d 40 1c 89 3b 2d 10 99 23 52 00 99 31 32 00 99 3b 40 00 99 46 45 18 89 33 2c 18 89 3b 40 00 89 31 32 30 89 23 52 10 89 46 45 4c 99 2a 1e 2c 89 2a 1e 81 18 99 2a 45 78 89 2a 45 44 99 2a 1f 34 89 2a 1f 81 10 99 25 52 00 99 2a 4b 70 89 2a 4b 44 89 25 52 08 99 2a 1f 38 89 2a 1f 81 0c 99 2a 48 81 0c 89 2a 48 34 99 23 40 00 99 2a 30 34 89 2a 30 2c 89 23 40 60 99 23 52 00 99 2a 48 60 89 23 52 0c 89 2a 48 50 99 2a 17 2c 89 2a 17 81 18 99 2a 45 78 89 2a 45 44 99 2a 1f 34 89 2a 1f 81 10 99 2a 4b 00 99 36 5b 60 89 36 5b 10 89 2a 4b 4c 99 2a 17 38 89 2a 17 81 0c 99 2a 48 81 0c 89 2a 48 30 99 2a 22 38 89 2a 22 81 0c 99 23 52 00 99 2a 48 00 99 46 45 60 89 23 52 0c 89 2a 48 04 89 46 45 4c 99 2a 1a 2c 89 2a 1a 81 18 99 2a 45 78 89 2a 45 44 99 2a 1f 34 89 2a 1f 81 10 99 25 52 00 99 2a 4b 70 89 2a 4b 44 89 25 52 08 99 2a 17 38 89 2a 17 81 0c 99 2a 48 81 0c 89 2a 48 34 99 23 40 00 99 2a 30 34 89 2a 30 2c 89 23 40 60 99 23 52 00 99 2a 48 60 89 23 52 0c 89 2a 48 50 99 2a 17 2c 89 2a 17 81 18 99 2a 45 78 89 2a 45 44 99 2a 22 34 89 2a 22 81 10 99 2a 4b 00 99 36 5b 60 89 36 5b 10 89 2a 4b 4c 99 2a 17 38 89 2a 17 81 0c 99 2a 48 81 0c 89 2a 48 30 99 2a 1f 38 89 2a 1f 81 0c 99 23 52 00 99 2a 48 00 99 46 45 60 89 23 52 10 89 46 45 1c 89 2a 48 30 99 2a 1e 2c 89 2a 1e 81 18 99 2a 45 78 89 2a 45 44 99 2a 1f 34 89 2a 1f 81 10 99 25 52 00 99 2a 4b 70 89 2a 4b 44 89 25 52 08 99 2a 1f 38 89 2a 1f 81 0c 99 2a 48 81 0c 89 2a 48 34 99 23 40 00 99 2a 30 34 89 2a 30 2c 89 23 40 60 99 23 52 00 99 2a 48 60 89 23 52 0c 89 2a 48 50 99 2a 17 2c 89 2a 17 81 18 99 2a 45 78 89 2a 45 44 99 2a 1f 34 89 2a 1f 81 10 99 2a 4b 00 99 36 5b 60 89 36 5b 10 89 2a 4b 4c 99 2a 17 38 89 2a 17 81 0c 99 2a 48 81 0c 89 2a 48 30 99 2a 22 38 89 2a 22 81 0c 99 23 52 00 99 2a 48 00 99 46 45 60 89 23 52 0c 89 2a 48 04 89 46 45 4c 99 2a 1a 2c 89 2a 1a 81 18 99 2a 45 78 89 2a 45 44 99 2a 1f 34 89 2a 1f 81 10 99 25 52 00 99 2a 4b 70 89 2a 4b 44 89 25 52 08 99 2a 17 38 89 2a 17 81 0c 99 2a 48 81 0c 89 2a 48 34 99 23 40 00 99 2a 30 34 89 2a 30 2c 89 23 40 60 99 23 52 00 99 2a 48 60 89 23 52 0c 89 2a 48 50 99 2a 17 2c 89 2a 17 81 18 99 2a 45 78 89 2a 45 48 99 26 37 34 89 26 37 81 0c 99 26 51 00 99 36 5b 60 89 36 5b 54 99 2d 40 08 89 26 51 81 14 89 2d 40 28 99 2d 5b 81 3c 89 2d 5b 0c 99 23 40 00 99 37 40 60 89 23 40 58 89 37 40 08 99 23 52 00 99 31 40 60 89 23 52 5c 99 2a 1e 2c 89 2a 1e 81 18 99 2a 45 78 89 2a 45 44 99 2a 1f 34 89 2a 1f 4c 89 31 40 44 99 26 49 00 99 2a 4b 70 89 2a 4b 4c 99 2a 1f 34 89 26 49 04 89 2a 1f 81 0c 99 2a 48 81 0c 89 2a 48 34 99 23 40 00 99 2a 30 34 89 2a 30 2c 89 23 40 60 99 23 52 00 99 2a 48 60 89 23 52 0c 89 2a 48 50 99 2a 17 2c 89 2a 17 81 18 99 2a 45 78 89 2a 45 44 99 2a 1f 34 89 2a 1f 81 10 99 26 49 00 99 2a 4b 00 99 36 5b 60 89 36 5b 10 89 2a 4b 4c 99 2a 17 34 89 26 49 04 89 2a 17 81 0c 99 2a 48 81 0c 89 2a 48 30 99 2a 22 38 89 2a 22 81 0c 99 23 52 00 99 2a 48 60 89 23 52 0c 89 2a 48 50 99 2a 1a 2c 89 2a 1a 81 18 99 2a 45 78 89 2a 45 44 99 2a 1f 34 89 2a 1f 81 10 99 26 49 00 99 2a 4b 70 89 2a 4b 4c 99 2a 17 34 89 26 49 04 89 2a 17 81 0c 99 2a 48 81 0c 89 2a 48 34 99 23 40 00 99 2a 30 34 89 2a 30 2c 89 23 40 60 99 23 52 00 99 2a 48 60 89 23 52 0c 89 2a 48 50 99 2a 17 2c 89 2a 17 81 18 99 2a 45 78 89 2a 45 44 99 2a 22 34 89 2a 22 81 10 99 26 49 00 99 2a 4b 00 99 36 5b 60 89 36 5b 10 89 2a 4b 4c 99 2a 17 34 89 26 49 04 89 2a 17 81 0c 99 2a 48 81 0c 89 2a 48 30 99 2a 1f 38 89 2a 1f 81 0c 99 23 52 00 99 2a 48 60 89 23 52 0c 89 2a 48 50 99 2a 1a 2c 89 2a 1a 81 18 99 2a 45 78 89 2a 45 44 99 2a 1f 34 89 2a 1f 81 10 99 26 49 00 99 2a 4b 70 89 2a 4b 4c 99 2a 17 34 89 26 49 04 89 2a 17 81 0c 99 2a 48 81 0c 89 2a 48 34 99 23 40 00 99 2a 30 34 89 2a 30 2c 89 23 40 60 99 23 52 00 99 2a 48 60 89 23 52 0c 89 2a 48 50 99 2a 17 2c 89 2a 17 81 18 99 2a 45 78 89 2a 45 44 99 2a 22 34 89 2a 22 81 10 99 26 49 00 99 2a 4b 00 99 36 5b 60 89 36 5b 10 89 2a 4b 4c 99 2a 17 34 89 26 49 04 89 2a 17 81 0c 99 2a 48 81 0c 89 2a 48 30 99 2a 1f 38 89 2a 1f 81 0c 99 23 52 00 99 2a 48 60 89 23 52 0c 89 2a 48 50 99 2a 1a 2c 89 2a 1a 81 18 99 2a 45 78 89 2a 45 44 99 2a 1f 34 89 2a 1f 81 10 99 26 49 00 99 2a 4b 70 89 2a 4b 44 89 26 49 08 99 2a 17 38 89 2a 17 81 0c 99 2a 48 81 0c 89 2a 48 34 99 23 40 00 99 2a 30 34 89 2a 30 2c 89 23 40 60 99 23 52 00 99 2a 48 60 89 23 52 0c 89 2a 48 50 99 2a 17 2c 89 2a 17 81 18 99 2a 45 78 89 2a 45 48 99 26 37 34 89 26 37 81 0c 99 26 51 00 99 36 5b 60 89 36 5b 54 99 2d 40 08 89 26 51 81 14 89 2d 40 28 99 2d 5b 81 3c 89 2d 5b 08 99 2a 1f 38 89 2a 1f 81 0c 99 23 52 00 99 31 40 60 89 23 52 5c 99 2a 1e 2c 89 2a 1e 81 18 99 2a 45 78 89 2a 45 44 99 2a 1f 34 89 2a 1f 4c 89 31 40 44 99 26 49 00 99 2a 4b 70 89 2a 4b 4c 99 2a 1f 34 89 26 49 04 89 2a 1f 81 0c 99 2a 48 81 0c 89 2a 48 34 99 23 40 00 99 2a 30 34 89 2a 30 2c 89 23 40 60 99 23 52 00 99 2a 48 60 89 23 52 0c 89 2a 48 50 99 2a 17 2c 89 2a 17 81 18 99 2a 45 78 89 2a 45 44 99 2a 1f 34 89 2a 1f 81 10 99 26 49 00 99 2a 4b 00 99 36 5b 60 89 36 5b 10 89 2a 4b 4c 99 2a 17 34 89 26 49 04 89 2a 17 81 0c 99 2a 48 81 0c 89 2a 48 30 99 2a 22 38 89 2a 22 81 0c 99 23 52 00 99 2a 48 60 89 23 52 0c 89 2a 48 50 99 2a 1a 2c 89 2a 1a 81 18 99 2a 45 78 89 2a 45 44 99 2a 1f 34 89 2a 1f 81 10 99 26 49 00 99 2a 4b 70 89 2a 4b 4c 99 2a 17 34 89 26 49 04 89 2a 17 81 0c 99 2a 48 81 0c 89 2a 48 34 99 23 40 00 99 2a 30 34 89 2a 30 2c 89 23 40 60 99 23 52 00 99 2a 48 60 89 23 52 0c 89 2a 48 50 99 2a 17 2c 89 2a 17 81 18 99 2a 45 78 89 2a 45 44 99 2a 22 34 89 2a 22 81 10 99 26 49 00 99 2a 4b 00 99 36 5b 60 89 36 5b 10 89 2a 4b 4c 99 2a 17 34 89 26 49 04 89 2a 17 81 0c 99 2a 48 81 0c 89 2a 48 30 99 2a 1f 38 89 2a 1f 81 0c 99 23 52 00 99 2a 48 60 89 23 52 0c 89 2a 48 50 99 2a 1a 2c 89 2a 1a 81 18 99 2a 45 78 89 2a 45 44 99 2a 1f 34 89 2a 1f 81 10 99 26 49 00 99 2a 4b 70 89 2a 4b 4c 99 2a 17 34 89 26 49 04 89 2a 17 81 0c 99 2a 48 81 0c 89 2a 48 34 99 23 40 00 99 2a 30 34 89 2a 30 2c 89 23 40 60 99 23 52 00 99 2a 48 60 89 23 52 0c 89 2a 48 50 99 2a 17 2c 89 2a 17 81 18 99 2a 45 78 89 2a 45 44 99 2a 22 34 89 2a 22 81 10 99 26 49 00 99 2a 4b 00 99 36 5b 60 89 36 5b 10 89 2a 4b 4c 99 2a 17 34 89 26 49 04 89 2a 17 81 0c 99 2a 48 81 0c 89 2a 48 30 99 2a 1f 38 89 2a 1f 81 0c 99 23 52 00 99 2a 48 60 89 23 52 0c 89 2a 48 50 99 2a 1a 2c 89 2a 1a 81 18 99 2a 45 78 89 2a 45 44 99 2a 1f 34 89 2a 1f 81 10 99 26 49 00 99 2a 4b 70 89 2a 4b 4c 99 2a 17 34 89 26 49 04 89 2a 17 81 0c 99 2a 48 81 0c 89 2a 48 34 99 23 40 00 99 2a 30 34 89 2a 30 2c 89 23 40 60 99 23 52 00 99 2a 48 60 89 23 52 0c 89 2a 48 54 99 26 3d 50 89 26 3d 70 99 26 51 50 89 26 51 6c 99 2a 22 04 99 23 4e 30 89 2a 22 30 89 23 4e 60 99 23 52 00 99 2a 4b 00 99 36 5b 60 89 36 5b 00 89 23 52 10 89 2a 4b 50 99 26 3d 50 89 26 3d 70 99 26 51 50 89 26 51 0c 99 2d 49 54 89 2d 49 08 99 2b 52 81 48 89 2b 52 00 99 23 52 00 99 31 40 60 89 23 52 5c 99 2a 1e 2c 89 2a 1e 81 18 99 2a 45 78 89 2a 45 44 99 2a 1f 34 89 2a 1f 4c 89 31 40 44 99 26 49 00 99 2a 4b 70 89 2a 4b 4c 99 2a 1f 04 99 50 24 30 89 26 49 04 89 2a 1f 08 89 50 24 81 04 99 2a 48 00 99 50 24 3c 89 50 24 50 89 2a 48 34 99 23 40 00 99 2a 30 00 99 51 34 34 89 2a 30 2c 89 23 40 60 99 23 52 00 99 2a 48 60 89 23 52 0c 89 2a 48 34 89 51 34 1c 99 2a 17 2c 89 2a 17 81 18 99 2a 45 78 89 2a 45 44 99 2a 1f 34 89 2a 1f 81 10 99 26 49 00 99 2a 4b 00 99 36 5b 60 89 36 5b 10 89 2a 4b 4c 99 2a 17 04 99 50 24 30 89 26 49 04 89 2a 17 08 89 50 24 81 04 99 2a 48 00 99 50 24 3c 89 50 24 50 89 2a 48 30 99 2a 22 04 99 51 34 34 89 2a 22 81 0c 99 23 52 00 99 2a 48 60 89 23 52 0c 89 2a 48 34 89 51 34 1c 99 2a 1a 2c 89 2a 1a 81 18 99 2a 45 78 89 2a 45 44 99 2a 1f 34 89 2a 1f 81 10 99 26 49 00 99 2a 4b 70 89 2a 4b 4c 99 2a 17 04 99 50 24 30 89 26 49 04 89 2a 17 08 89 50 24 81 04 99 2a 48 00 99 50 24 3c 89 50 24 50 89 2a 48 34 99 23 40 00 99 2a 30 00 99 51 34 34 89 2a 30 2c 89 23 40 60 99 23 52 00 99 2a 48 60 89 23 52 0c 89 2a 48 34 89 51 34 1c 99 2a 17 2c 89 2a 17 81 18 99 2a 45 78 89 2a 45 44 99 2a 22 34 89 2a 22 81 04 99 26 34 0c 99 36 5b 00 99 26 49 0c 89 26 00 04 89 26 34 50 89 36 5b 60 99 2d 49 00 99 50 24 3c 89 50 24 18 89 2d 49 6c 99 2b 52 00 99 50 24 3c 89 50 24 81 00 99 2a 1f 04 99 23 4b 00 99 51 34 04 89 2b 52 30 89 2a 1f 2c 89 23 4b 60 99 23 52 00 99 31 40 60 89 23 52 40 89 51 34 1c 99 2a 1a 2c 89 2a 1a 81 18 99 2a 45 78 89 2a 45 44 99 2a 1f 34 89 2a 1f 4c 89 31 40 44 99 26 49 00 99 2a 4b 70 89 2a 4b 4c 99 2a 17 04 99 50 24 30 89 26 49 04 89 2a 17 08 89 50 24 81 04 99 2a 48 00 99 50 24 3c 89 50 24 50 89 2a 48 34 99 23 40 00 99 2a 30 00 99 51 34 34 89 2a 30 2c 89 23 40 60 99 23 52 00 99 2a 48 60 89 23 52 0c 89 2a 48 34 89 51 34 1c 99 2a 17 2c 89 2a 17 81 18 99 2a 45 78 89 2a 45 44 99 2a 22 34 89 2a 22 81 10 99 26 49 00 99 2a 4b 00 99 36 5b 60 89 36 5b 10 89 2a 4b 4c 99 2a 17 04 99 50 24 30 89 26 49 04 89 2a 17 08 89 50 24 81 04 99 2a 48 00 99 50 24 3c 89 50 24 50 89 2a 48 30 99 2a 1f 04 99 51 34 34 89 2a 1f 81 0c 99 23 52 00 99 2a 48 60 89 23 52 0c 89 2a 48 34 89 51 34 1c 99 2a 1a 2c 89 2a 1a 81 18 99 2a 45 78 89 2a 45 44 99 2a 1f 34 89 2a 1f 81 10 99 26 49 00 99 2a 4b 70 89 2a 4b 4c 99 2a 17 04 99 50 24 30 89 26 49 04 89 2a 17 08 89 50 24 81 04 99 2a 48 00 99 50 24 3c 89 50 24 50 89 2a 48 34 99 23 42 00 99 2a 30 00 99 51 34 34 89 2a 30 2c 89 23 42 00 99 23 51 54 99 26 37 0c 89 23 51 04 99 26 4e 10 89 26 37 00 89 26 00 81 0c 89 51 34 83 20 99 26 3a 50 89 26 3a 70 99 26 4e 50 89 26 4e 81 30 99 2f 40 60 89 2f 40 81 20 99 2d 40 81 0c 89 2d 40 74 99 23 52 00 99 31 40 60 89 23 52 5c 99 2a 1e 2c 89 2a 1e 81 18 99 2a 45 78 89 2a 45 44 99 2a 1f 34 89 2a 1f 4c 89 31 40 44 99 26 49 00 99 2a 4b 70 89 2a 4b 4c 99 2a 1f 34 89 26 49 04 89 2a 1f 81 0c 99 2a 48 81 0c 89 2a 48 34 99 23 40 00 99 2a 30 34 89 2a 30 2c 89 23 40 60 99 23 52 00 99 2a 48 60 89 23 52 0c 89 2a 48 50 99 2a 17 2c 89 2a 17 81 18 99 2a 45 78 89 2a 45 44 99 2a 1f 34 89 2a 1f 81 10 99 26 49 00 99 2a 4b 00 99 36 5b 60 89 36 5b 10 89 2a 4b 4c 99 2a 17 34 89 26 49 04 89 2a 17 81 0c 99 2a 48 81 0c 89 2a 48 30 99 2a 22 38 89 2a 22 81 0c 99 23 52 00 99 2a 48 60 89 23 52 0c 89 2a 48 50 99 2a 1a 2c 89 2a 1a 81 18 99 2a 45 78 89 2a 45 44 99 2a 1f 34 89 2a 1f 81 10 99 26 49 00 99 2a 4b 70 89 2a 4b 4c 99 2a 17 34 89 26 49 04 89 2a 17 81 0c 99 2a 48 81 0c 89 2a 48 34 99 23 40 00 99 2a 30 34 89 2a 30 2c 89 23 40 60 99 23 52 00 99 2a 48 60 89 23 52 0c 89 2a 48 50 99 2a 17 2c 89 2a 17 81 18 99 2a 45 78 89 2a 45 44 99 2a 22 34 89 2a 22 81 10 99 26 49 00 99 2a 4b 00 99 36 5b 60 89 36 5b 10 89 2a 4b 4c 99 2a 17 34 89 26 49 04 89 2a 17 81 0c 99 2a 48 81 0c 89 2a 48 30 99 2a 1f 38 89 2a 1f 81 0c 99 23 52 00 99 2a 48 60 89 23 52 0c 89 2a 48 50 99 2a 1a 2c 89 2a 1a 81 18 99 2a 45 78 89 2a 45 44 99 2a 1f 34 89 2a 1f 81 10 99 26 49 00 99 2a 4b 70 89 2a 4b 4c 99 2a 17 34 89 26 49 04 89 2a 17 81 0c 99 2a 48 81 0c 89 2a 48 34 99 23 40 00 99 2a 30 34 89 2a 30 2c 89 23 40 60 99 23 52 00 99 2a 48 60 89 23 52 0c 89 2a 48 50 99 2a 17 2c 89 2a 17 81 18 99 2a 45 78 89 2a 45 44 99 2a 22 34 89 2a 22 81 10 99 26 49 00 99 2a 4b 00 99 36 5b 60 89 36 5b 10 89 2a 4b 4c 99 2a 17 34 89 26 49 04 89 2a 17 81 0c 99 2a 48 81 0c 89 2a 48 30 99 2a 1f 38 89 2a 1f 81 0c 99 23 52 00 99 31 40 14 89 31 40 4c 89 23 52 5c 99 2a 1a 2c 89 2a 1a 81 18 99 2a 45 78 89 2a 45 44 99 2a 1f 34 89 2a 1f 81 10 99 26 49 00 99 39 40 14 89 39 40 81 28 99 2a 17 34 89 26 49 04 89 2a 17 81 0c 99 2a 48 81 0c 89 2a 48 34 99 23 40 00 99 2a 30 34 89 2a 30 2c 89 23 40 60 99 23 52 00 99 31 40 14 89 31 40 4c 89 23 52 5c 99 2a 30 38 89 2a 30 81 0c 99 2a 4b 70 89 2a 4b 50 99 23 4e 00 99 26 3d 50 89 26 3d 10 89 23 4e 60 99 23 52 00 99 26 51 00 99 36 5b 50 89 26 51 10 89 36 5b 00 89 23 52 60 99 2d 49 54 89 2d 49 6c 99 2b 52 81 40 99 23 40 00 99 2e 3a 04 89 2b 52 2c 89 2e 3a 30 89 23 40 60 99 23 52 00 99 2c 1e 00 99 31 40 28 89 2c 1e 38 89 23 52 5c 99 2a 1e 2c 89 2a 1e 81 18 99 2a 45 78 89 2a 45 44 99 2a 1f 34 89 2a 1f 4c 89 31 40 44 99 26 49 00 99 2a 4b 70 89 2a 4b 4c 99 2a 1f 34 89 26 49 04 89 2a 1f 81 0c 99 2a 48 81 0c 89 2a 48 34 99 23 40 00 99 2a 30 34 89 2a 30 2c 89 23 40 60 99 23 52 00 99 2a 48 60 89 23 52 0c 89 2a 48 50 99 2a 17 2c 89 2a 17 81 18 99 2a 45 78 89 2a 45 44 99 2a 1f 34 89 2a 1f 81 10 99 26 49 00 99 2a 4b 00 99 36 5b 60 89 36 5b 10 89 2a 4b 4c 99 2a 17 34 89 26 49 04 89 2a 17 81 0c 99 2a 48 81 0c 89 2a 48 30 99 2a 22 38 89 2a 22 81 0c 99 23 52 00 99 2a 48 60 89 23 52 0c 89 2a 48 50 99 2a 1a 2c 89 2a 1a 81 18 99 2a 45 78 89 2a 45 44 99 2a 1f 34 89 2a 1f 81 10 99 26 49 00 99 2a 4b 70 89 2a 4b 4c 99 2a 17 34 89 26 49 04 89 2a 17 81 0c 99 2a 48 81 0c 89 2a 48 34 99 23 40 00 99 2a 30 34 89 2a 30 2c 89 23 40 60 99 23 52 00 99 2a 48 60 89 23 52 0c 89 2a 48 50 99 2a 17 2c 89 2a 17 81 18 99 2a 45 78 89 2a 45 44 99 2a 22 34 89 2a 22 81 10 99 26 49 00 99 2a 4b 00 99 36 5b 60 89 36 5b 10 89 2a 4b 4c 99 2a 17 34 89 26 49 04 89 2a 17 81 0c 99 2a 48 81 0c 89 2a 48 30 99 2a 1f 38 89 2a 1f 81 0c 99 23 52 00 99 31 40 50 89 31 40 10 89 23 52 5c 99 2a 1a 2c 89 2a 1a 81 18 99 2a 45 78 89 2a 45 44 99 2a 1f 34 89 2a 1f 81 10 99 26 49 00 99 2a 4b 70 89 2a 4b 4c 99 2a 17 34 89 26 49 04 89 2a 17 81 0c 99 2a 48 81 0c 89 2a 48 34 99 23 40 00 99 2a 30 00 99 34 31 34 89 2a 30 1c 89 34 31 10 89 23 40 60 99 23 52 00 99 2a 48 00 99 34 40 50 89 34 40 10 89 23 52 0c 89 2a 48 50 99 2a 17 2c 89 2a 17 81 18 99 2a 45 78 89 2a 45 44 99 2a 22 34 89 2a 22 81 10 99 26 49 00 99 2a 4b 00 99 36 5b 60 89 36 5b 10 89 2a 4b 4c 99 2a 17 04 99 2d 49 30 89 26 49 04 89 2a 17 20 89 2d 49 6c 99 2a 48 00 99 2b 52 00 99 34 31 50 89 34 31 3c 89 2a 48 30 99 2a 1f 08 89 2b 52 30 89 2a 1f 81 0c 99 23 52 00 99 2a 48 00 99 31 40 50 89 31 40 10 89 23 52 0c 89 2a 48 50 99 2a 1a 2c 89 2a 1a 81 18 99 2a 45 78 89 2a 45 44 99 2a 1f 34 89 2a 1f 81 10 99 26 49 00 99 2a 4b 70 89 2a 4b 4c 99 2a 17 34 89 26 49 04 89 2a 17 81 0c 99 2a 48 81 0c 89 2a 48 34 99 23 40 00 99 2a 30 00 99 34 31 34 89 2a 30 1c 89 34 31 10 89 23 40 60 99 23 52 00 99 2a 48 00 99 34 40 50 89 34 40 10 89 23 52 0c 89 2a 48 50 99 2a 17 2c 89 2a 17 81 18 99 2a 45 78 89 2a 45 44 99 2a 22 34 89 2a 22 81 10 99 26 49 00 99 36 5b 60 89 36 5b 60 99 2d 49 30 89 26 49 24 89 2d 49 6c 99 2b 52 81 3c 99 2a 1f 08 89 2b 52 30 89 2a 1f 81 0c 99 23 52 00 99 2a 48 00 99 31 40 50 89 31 40 10 89 23 52 0c 89 2a 48 50 99 2a 1a 2c 89 2a 1a 81 18 99 2a 45 78 89 2a 45 44 99 2a 1f 34 89 2a 1f 81 10 99 26 49 00 99 2a 4b 70 89 2a 4b 4c 99 2a 17 34 89 26 49 04 89 2a 17 81 0c 99 2a 48 81 0c 89 2a 48 34 99 23 40 00 99 2e 3d 34 89 2e 3d 2c 89 23 40 60 99 23 52 00 99 2a 48 00 99 34 40 50 89 34 40 10 89 23 52 0c 89 2a 48 50 99 2a 17 2c 89 2a 17 81 18 99 3b 1a 30 89 3b 1a 00 99 33 1a 30 89 33 1a 04 99 3b 1d 2c 89 3b 1d 00 99 33 1d 34 99 3b 22 04 89 33 1d 28 99 33 22 04 89 3b 22 24 89 33 22 00 99 3b 22 24 89 3b 22 00 99 33 22 38 89 33 22 00 99 3b 25 0c 99 36 5b 1c 89 3b 25 0c 99 33 28 28 89 33 28 00 99 3b 2b 10 89 36 5b 10 89 3b 2b 10 99 33 2b 30 89 33 2b 00 99 3b 28 24 89 3b 28 08 99 33 28 2c 89 33 28 04 99 3b 2b 20 89 3b 2b 08 99 33 2e 18 89 33 2e 14 99 3b 2e 30 89 3b 2e 04 99 33 31 2c 89 33 31 00 99 3b 34 2c 89 3b 34 08 99 33 34 28 89 33 34 00 99 3b 37 30 89 3b 37 00 99 33 3a 20 89 33 3a 08 99 3b 42 28 99 33 3a 08 89 3b 42 18 89 33 3a 0c 99 3b 3a 20 89 3b 3a 18 99 31 22 50 89 31 22 8a 38 99 33 1d 20 99 3b 2d 14 89 33 1d 10 99 33 2c 24 89 3b 2d 10 99 37 26 00 99 3b 40 18 89 33 2c 18 89 3b 40 00 89 37 26 97 50 99 33 34 00 99 46 45 18 89 33 34 58 89 46 45 50 99 46 34 54 89 46 34 6c 99 46 34 70 89 46 34 50 99 46 20 81 5c 89 46 20 8d 24 99 50 24 81 40 99 51 34 08 89 50 24 82 58 89 51 34 20 99 46 45 70 89 46 45 50 99 46 34 54 89 46 34 6c 99 46 34 70 89 46 34 50 99 46 20 81 5c 89 46 20 8d 24 99 50 24 81 40 99 51 34 08 89 50 24 82 00 99 33 1d 20 99 3b 2d 14 89 33 1d 10 99 33 2c 14 89 51 34 10 89 3b 2d 10 99 37 26 00 99 3b 40 00 99 46 45 18 89 33 2c 18 89 3b 40 00 89 37 26 40 89 46 45 50 99 46 34 54 89 46 34 6c 99 46 34 70 89 46 34 50 99 46 20 81 5c 89 46 20 85 64 99 33 34 18 89 33 34 97 68 99 33 34 18 89 33 34 84 28 99 33 1f 18 89 33 1f 81 28 99 33 34 18 89 33 34 8a 28 99 33 1f 18 89 33 1f 81 28 99 33 34 18 89 33 34 84 28 99 33 1f 18 89 33 1f 81 28 99 33 34 18 89 33 34 85 68 99 33 34 18 89 33 34 90 70 99 33 1d 20 99 3b 2d 14 89 33 1d 10 99 33 2c 24 89 3b 2d 10 99 37 26 00 99 3b 40 18 89 33 2c 18 89 3b 40 00 89 37 26 ab 04 b9 79 7f 84 4c ff 2f 00 4d 54 72 6b 00 00 03 5a 00 ff 03 09 53 54 45 45 4c 20 47 54 52 84 48 ba 00 00 08 ca 19 04 ba 07 7f 00 ba 0a 40 00 ba 0b 7f 04 ba 5b 64 00 ba 5d 00 93 28 9a 29 30 3c 8a 29 30 8d 04 9a 29 2b 3c 8a 29 2b 81 04 9a 2d 30 3c 8a 2d 30 81 04 9a 32 30 3c 8a 32 30 82 44 9a 29 1f 3c 8a 29 1f 84 04 9a 29 30 3c 8a 29 30 8d 04 9a 29 2b 3c 8a 29 2b 81 04 9a 2d 30 3c 8a 2d 30 81 04 9a 32 30 3c 8a 32 30 82 44 9a 29 1f 3c 8a 29 1f dc 44 9a 2d 30 3c 8a 2d 30 82 44 9a 32 30 3c 8a 32 30 81 04 9a 2b 30 3c 8a 2b 30 82 44 9a 24 4e 60 8a 24 4e 89 60 9a 24 37 60 8a 24 37 60 9a 24 4e 60 8a 24 4e 60 9a 2b 30 3c 8a 2b 30 81 04 9a 29 30 3c 8a 29 30 88 44 9a 24 4e 60 8a 24 4e 89 60 9a 24 37 60 8a 24 37 60 9a 24 4e 60 8a 24 4e 8b 20 9a 24 4e 81 6c 8a 24 4e 8a 14 9a 24 4e 81 40 9a 2b 30 2c 8a 24 4e 10 8a 2b 30 81 04 9a 29 30 3c 8a 29 30 88 44 9a 24 4e 60 8a 24 4e 89 60 9a 24 37 60 8a 24 37 60 9a 24 4e 60 8a 24 4e 85 20 9a 32 30 3c 8a 32 30 81 04 9a 2d 30 3c 8a 2d 30 81 04 9a 29 30 3c 8a 29 30 82 44 9a 24 4e 60 8a 24 4e 89 60 9a 24 37 60 8a 24 37 60 9a 24 4e 60 8a 24 4e 8b 20 9a 24 4e 60 8a 24 4e 89 60 9a 24 37 60 8a 24 37 60 9a 24 4e 60 8a 24 4e 8b 20 9a 24 4e 60 8a 24 4e 89 60 9a 24 37 60 8a 24 37 60 9a 24 4e 60 8a 24 4e 8b 20 9a 24 4e 60 8a 24 4e 89 60 9a 24 37 60 8a 24 37 60 9a 24 4e 60 8a 24 4e 86 60 9a 2d 37 3c 8a 2d 37 81 04 9a 29 45 3c 8a 29 45 82 44 9a 24 4e 60 8a 24 4e 89 60 9a 24 37 60 8a 24 37 60 9a 24 4e 60 8a 24 4e 60 9a 32 30 3c 8a 32 30 81 04 9a 2d 30 3c 8a 2d 30 81 04 9a 32 30 3c 8a 32 30 87 04 9a 24 4e 60 8a 24 4e 89 60 9a 24 37 60 8a 24 37 60 9a 24 4e 60 8a 24 4e 60 9a 32 30 3c 8a 32 30 81 04 9a 2d 30 3c 8a 2d 30 81 04 9a 32 30 3c 8a 32 30 81 04 9a 32 30 3c 8a 32 30 81 44 9a 2f 30 3c 8a 2f 30 81 44 9a 29 30 3c 8a 29 30 81 44 9a 24 4e 60 8a 24 4e 89 60 9a 24 37 60 8a 24 37 60 9a 24 4e 60 8a 24 4e 83 60 9a 32 30 3c 8a 32 30 87 04 9a 24 4e 60 8a 24 4e 85 20 9a 32 30 3c 8a 32 30 84 04 9a 24 37 60 8a 24 37 60 9a 24 4e 60 8a 24 4e 86 60 9a 2f 30 3c 8a 2f 30 81 04 9a 29 30 3c 8a 29 30 82 44 9a 24 4e 60 8a 24 4e 60 9a 29 2b 3c 8a 29 2b 81 04 9a 2d 30 3c 8a 2d 30 81 04 9a 32 30 3c 8a 32 30 85 44 9a 24 37 60 8a 24 37 60 9a 24 4e 60 8a 24 4e 81 90 60 9a 29 2b 3c 8a 29 2b 81 04 9a 2d 30 3c 8a 2d 30 81 04 9a 32 30 3c 8a 32 30 dc 44 9a 29 2b 3c 8a 29 2b 81 04 9a 2d 30 3c 8a 2d 30 81 04 9a 32 30 3c 8a 32 30 82 84 44 9a 29 2b 3c 8a 29 2b 81 04 9a 2d 30 3c 8a 2d 30 81 04 9a 32 30 3c 8a 32 30 94 44 9a 29 2b 3c 8a 29 2b 81 04 9a 2d 30 3c 8a 2d 30 81 04 9a 32 30 3c 8a 32 30 94 44 9a 29 2b 3c 8a 29 2b 81 04 9a 2d 30 3c 8a 2d 30 81 04 9a 32 30 3c 8a 32 30 82 8a 4c ba 79 7f 84 38 ff 2f 00 4d 54 72 6b 00 00 00 d5 00 ff 03 09 53 54 45 45 4c 20 47 54 52 84 5c bb 00 00 08 cb 19 04 bb 07 7f 00 bb 0a 20 00 bb 0b 7f 04 bb 5b 64 00 bb 5d 00 93 14 9b 2e 45 81 04 8b 2e 45 34 9b 2e 34 81 3c 9b 33 37 81 3c 9b 35 3d 08 8b 33 37 87 08 8b 2e 34 40 9b 2e 45 08 8b 35 3d 7c 8b 2e 45 34 9b 2e 34 81 3c 9b 35 37 81 3c 9b 37 3d 08 8b 35 37 83 08 8b 37 3d 04 9b 33 3c 84 08 8b 2e 34 34 9b 2e 45 04 8b 33 3c 81 00 8b 2e 45 34 9b 2e 34 81 3c 9b 33 37 81 3c 9b 35 3d 08 8b 33 37 87 08 8b 2e 34 40 9b 2e 45 08 8b 35 3d 7c 8b 2e 45 34 9b 2e 34 81 3c 9b 35 37 81 3c 9b 37 3d 08 8b 35 37 83 08 8b 37 3d 04 9b 33 3c 84 40 8b 33 3c 04 8b 2e 34 89 c3 54 bb 79 7f 84 24 ff 2f 00 4d 54 72 6b 00 00 00 90 00 ff 03 0a 52 45 56 45 52 53 43 59 4d 42 85 18 bc 00 00 08 cc 77 04 bc 07 7f 00 bc 0a 40 00 bc 0b 7f 04 bc 5b 64 00 bc 5d 00 be 18 9c 3c 2b 84 4c 8c 3c 2b 81 bb 34 9c 3c 2b 84 4c 8c 3c 2b db 34 9c 3c 2b 84 4c 8c 3c 2b db 34 9c 3c 2b 84 4c 8c 3c 2b 93 34 9c 3c 2b 84 4c 8c 3c 2b 84 d0 34 9c 3c 28 87 44 8c 3c 28 87 3c 9c 3c 2b 84 4c 8c 3c 2b e7 34 9c 3c 2b 84 4c 8c 3c 2b ab 34 9c 3c 2b 84 4c 8c 3c 2b ab 64 bc 79 7f 84 10 ff 2f 00 4d 54 72 6b 00 00 00 9c 00 ff 03 0a 2b 57 49 4e 44 43 48 49 4d 45 85 2c bd 00 05 08 cd 7c 04 bd 07 7f 00 bd 0a 40 00 bd 0b 7f 04 bd 5b 64 00 bd 5d 00 b9 44 9d 48 1f 88 0c 8d 48 1f 81 b7 74 9d 48 1f 88 0c 8d 48 1f d7 74 9d 48 1f 88 0c 8d 48 1f ef 74 9d 48 1f 88 0c 8d 48 1f 81 b7 74 9d 48 1f 88 0c 8d 48 1f d7 74 9d 48 1f 88 0c 8d 48 1f 81 b7 74 9d 48 1f 88 0c 8d 48 1f 81 87 74 9d 48 1f 88 0c 8d 48 1f d7 74 9d 48 1f 88 0c 8d 48 1f a7 74 9d 48 1f 88 0c 8d 48 1f ac 78 bd 79 7f 83 7c ff 2f 00 4d 54 72 6b 00 00 00 1e 00 ff 03 08 47 53 2f 52 45 53 45 54 00 f0 0a 41 10 42 12 40 00 7f 00 41 f7 b0 00 ff 2f 00 ffffffff 